<?xml version="1.0" encoding="UTF-8"?>
<svg id="_レイヤー_2" data-name="レイヤー 2" xmlns="http://www.w3.org/2000/svg" viewBox="0 0 232 172.5">
  <defs>
    <style>
      .cls-1 {
        fill: #9ed2b7;
      }

      .cls-2 {
        fill: #fff;
      }

      .cls-3 {
        fill: #f5bbb3;
      }
    </style>
  </defs>
  <g id="img">
    <g id="top_cording">
      <g>
        <path d="M215.09,147.61c.23.2.53.45.98.83-.68.13-1.2.24-1.72.34-.25.62-.29,1.32-.91,1.75-.12.08-.07.46-.05.7.01.1.21.17.26.29.08.16.2.44.14.51-.13.14-.37.23-.58.24-.29.02-.59-.04-.91-.07-.19.22-.38.44-.63.72.37.31.73.59,1.05.91.12.12.2.39.15.52-.06.14-.34.31-.47.27-.49-.14-.96-.36-1.52-.59-.1.16-.27.42-.43.67.08.1.11.19.15.19,1.01.11,1.16.31,1.1,1.31-.03.52,0,1.05.02,1.57.02.44-.17.66-.61.74-.82.15-1.12.53-1.24,1.36-.05.35-.2.69-.3,1.03-.4,1.29-.97,2.55-1.15,3.86-.19,1.44-.88,2.67-1.27,4.02-.21.75-.41,1.52-.6,2.28-.16.64-.64.88-1.32.91-1.4.06-2.79-.27-4.2.03-.61.13-1.3-.05-1.95-.1-.16-.01-.36-.11-.49-.05-1.19.52-2.4-.1-3.61.11-.53.09-1.14-.16-1.74.04-.37.12-.85-.38-.94-.85-.18-.89-.39-1.78-.54-2.67-.28-1.65-.49-3.32-.78-4.97-.17-.97-.2-1.96-.57-2.9-.19-.49-.39-.68-.91-.68-1.16,0-1.31-.14-1.45-1.26-.07-.58-.06-1.17-.09-1.76-.03-.44.11-.72.6-.69.03,0,.07.02.1.01,1.38-.69,2.93-.11,4.39-.63-.08-.74-.99-.97-1.06-1.68-.68.24-1.25.44-1.84.65-.46-.99.59-1.01.84-1.59-.12-.25-.25-.59-.43-.89-.34-.59-.55-.65-1.28-.44-.13.04-.26.07-.39.09-.36.06-.69.02-.78-.4-.08-.36.15-.54.48-.63.12-.03.24-.11.43-.21-.2-.88-.4-1.75-.61-2.64-.43-.04-.79-.03-1.13-.11-.16-.04-.37-.22-.39-.36-.02-.15.13-.38.27-.47.22-.13.5-.17.85-.28-.08-1.4.25-2.75,1.05-3.95-.25-.39-.48-.76-.75-1.18.83-.31.95.23,1.12.74.21-.22.33-.45.52-.53.97-.42,1.33-1.22,1.46-2.19.02-.13.04-.29.12-.36.11-.09.29-.15.43-.13.09,0,.22.18.22.28,0,.36-.03.72-.04,1.03.46.47.92.23,1.31.19.24-.41.46-.79.68-1.17q.76.51.27,1.46c.17.15.39.33.72.62.28-1.07.52-1.97.75-2.88-.09.05-.17.1-.26.15-.25-.35-.48-.72-.75-1.05-.17-.22-.4-.46-.1-.66.16-.11.49-.06.7.02.27.11.49.33.79.54.32-.8.62-1.56.95-2.4-.21-.17-.53-.4-.8-.68-.11-.12-.19-.4-.12-.51.08-.12.39-.22.5-.16.33.18.61.44,1.02.76.35-.08.67-.29.8-.83.09-.36.36-.68.61-1.13-.13-.19-.35-.44-.48-.73-.08-.17,0-.41,0-.62.22.09.51.11.64.27.2.24.3.58.41.81.47-.14.86-.26,1.26-.38.38-.12.75-.25,1.12-.37.13-.44.23-.86.39-1.24.06-.14.37-.32.44-.28.16.11.33.32.35.5.03.31-.06.63-.08.84.98.49,1.85.92,2.71,1.35.27-.29.51-.6.8-.85.11-.09.37-.07.52,0,.07.03.1.33.04.43-.25.38-.55.73-.86,1.13.32.86.64,1.75.98,2.67.32.03.69.03,1.03.12.19.05.46.24.48.39.02.16-.17.42-.34.52-.24.14-.54.17-.85.26-.02.29-.01.59-.06.88-.13.91-.14.9.8,1.1.31.07.62.17.93.27.02,0,.02.06.06.15-.16.43-.61.48-1,.6-.69.22-.68.24-.69.97,0,.62-.11,1.23-.18,1.94.68-.64,1.69-.74,2.14-1.63.06-.13.34-.16.53-.21.25-.06.51-.1.74-.14.13-.51.25-.97.37-1.46q.58.37.79,1.21c.85-.05,1.39.45,1.73,1.19.23.5.65.5,1.07.55.3.04.6.07.98.12q-.4.52-1.1.7c-.02.06-.07.15-.04.18.87,1.17.1,2.42.26,3.78Z"/>
        <path class="cls-2" d="M205.04,170.71c-1.26,0-2.47-.05-3.67.01-1.34.07-2.67-.2-4.01-.15-.89.03-1.77.08-2.66.12-.75.04-.95-.08-1.16-.76-.13-.41-.27-.82-.34-1.24-.23-1.5-.43-3-.66-4.5-.08-.49-.22-.96-.33-1.44-.22-.95-.44-1.9-.67-2.93,1.08-.05,2.05-.08,3.02-.14.42-.03.84-.14,1.27-.18.62-.06,1.24-.08,1.86-.12.13,0,.29.06.39.01.87-.46,1.83-.34,2.7-.24,1.08.12,2.1-.33,3.2-.04.58.15,1.29-.18,1.94-.29.26-.04.54-.16.77-.09.59.16,1.14.27,1.73-.03.16-.08.53.05.68.21.11.11.11.54,0,.62-.48.35-.35.9-.56,1.33-.48,1.01-.91,2.03-.95,3.18,0,.13-.04.27-.1.38-.97,1.53-1.17,3.35-1.92,4.97-.18.39-.31.79-.53,1.33Z"/>
        <path class="cls-1" d="M197.95,155.06c-.06-.32-.12-.58-.16-.83-.02-.16.04-.36-.04-.49-.95-1.52-.62-3.34-1.17-4.95-.09-.27-.04-.58-.04-.88,0-.29.06-.59.02-.87-.09-.64-.08-1.24.24-1.82.22-.39.24-.78.07-1.23-.28-.72.11-1.41.29-2.1.05-.19.22-.37.22-.55-.03-1.68.84-3.07,1.44-4.55.4-.98.88-1.9,1.66-2.6.77-.69,1.67-1.14,2.77-1.01.32.04.64,0,1.06,0,.4.36.72.83.87,1.5.28,1.21.85,2.33.99,3.59.05.48.62.94.27,1.46-.63.92-.36,1.99-.55,2.97-.26,1.35-.26,2.74-.43,4.11-.12.93-.46,1.85-.52,2.78-.08,1.33-.76,2.56-.48,3.95.12.62-.25.98-.92,1.05-.95.1-1.91.15-2.86.22-.87.07-1.74.15-2.74.24Z"/>
        <path class="cls-1" d="M209.35,154.52c-1.42.43-2.7.14-4.11.2.12-.47.23-.87.33-1.27.18-.7.35-1.4.52-2.1.05-.22.03-.5.16-.66.68-.84.65-1.88.7-2.85.08-1.47.73-2.55,1.86-3.39.58-.43,1.2-.81,1.82-1.18.48-.28.98-.51,1.45-.75,1.04.65,1.39,1.54,1.39,2.63,0,.4.04.79.06,1.19,0,.17.07.36,0,.49-.54,1.03-.55,2.24-1.32,3.24-1.09,1.41-1.95,2.99-2.87,4.45Z"/>
        <path class="cls-1" d="M195.31,151.64c.35.35.63.7.7,1.25.1.71.39,1.39.63,2.2-.58.15-1.1.28-1.62.41-.48-.51-.94-.99-1.39-1.47-.07-.07-.15-.14-.2-.22-.2-.4-.29-.92-.6-1.17-.33-.26-.62-.49-.89-.85-.38-.52-.94-.88-1.2-1.53-.27-.7-.79-1.33-.91-2.04-.2-1.19-.17-2.42-.24-3.63.62-.82,1.06-1.87,2.11-2.21.48-.15,1.12.04,1.64.21,1.07.37,1.47,1.17,1.44,2.36-.01.46.23.92.38,1.5-.47,1.33-.64,2.79,0,4.28.12.29.1.64.15.96l-.08.04.05-.08Z"/>
        <path class="cls-2" d="M189.51,158.47c-.13-.42-.24-.75-.39-1.24.62-.04,1.16-.06,1.7-.12.29-.03.57-.19.85-.18.74.03,1.46-.43,2.23-.09.17.07.44-.07.66-.13.19-.06.37-.19.56-.2,1.28-.07,2.56-.12,3.83-.16.43-.02.86,0,1.29-.02,1.57-.09,3.13-.23,4.7-.29,1.56-.06,3.12-.07,4.68-.08.15,0,.3.13.46.21.03.34.06.67.1,1.05-.17.06-.32.19-.46.17-1.48-.2-2.92.34-4.39.21-.72-.06-1.42-.03-2.15.11-.83.16-1.71.07-2.55.18-1.51.2-3,.31-4.53.19-.74-.06-1.53.1-2.24.33-.37.12-.69.12-1.05.11-.65-.01-1.31,0-1.96,0-.43,0-.86,0-1.35,0Z"/>
        <path d="M205.54,139.06c-.03.47-.51.73-.87.47-.45-.32-.9-.69-1.25-1.11-.14-.16-.11-.57,0-.79.14-.28.51-.39.77-.16.46.41.88.89,1.3,1.34.06.06.05.19.06.24Z"/>
        <path d="M199.46,139.14c-.37-.46-.45-.81-.2-1.19.34-.51.54-1.16,1.22-1.34.09-.02.38.26.36.33-.29.81-.48,1.7-1.38,2.2Z"/>
        <path d="M204.23,143.88c-.08.12-.17.38-.33.43-.17.05-.5-.04-.58-.18-.24-.41-.46-.87-.56-1.33-.04-.18.24-.52.46-.63.3-.15.58.04.68.37.12.41.2.82.33,1.34Z"/>
        <path d="M198.25,154.16c.02-.62.62-1.33,1.09-1.32.39.01.62.22.62.62,0,.55-.61,1.23-1.08,1.23-.4,0-.61-.2-.63-.53Z"/>
        <path d="M201.09,146.14c-.02.61-.51.88-.84,1.22-.22.23-.61.05-.7-.27-.12-.42.21-1.3.6-1.47.22-.1.52-.16.73-.08.13.05.15.39.21.6Z"/>
        <path d="M199.94,142.77c-.21.45-.33.83-.54,1.15-.21.32-.7.24-.75-.13-.05-.43-.02-.9.1-1.32.09-.32.43-.56.78-.34.2.13.29.44.41.65Z"/>
        <path d="M203.93,147.63c0,.38-.45.67-.79.43-.36-.25-.65-.64-.87-1.02-.16-.29.19-.67.53-.66.39.02,1.13.84,1.13,1.25Z"/>
        <path d="M201.49,149.89c-.31.48-.58.92-.89,1.32-.06.08-.33.07-.44,0-.11-.07-.24-.3-.2-.4.17-.45.38-.9.63-1.32.07-.12.39-.21.51-.15.17.09.26.33.41.54Z"/>
        <path d="M201.25,141.38c-.09-.27-.29-.56-.23-.78.11-.39.32-.78.59-1.09.25-.29.64-.09.71.3.09.5-.37,1.22-1.08,1.57Z"/>
        <path d="M203.28,153.78c-.42-.26-.74-.36-.88-.57-.16-.23-.25-.61-.17-.86.04-.14.49-.23.75-.21.37.02.6.28.56.66-.03.27-.14.54-.26.99Z"/>
        <path d="M207.76,151.8c-.6.13-1.05.17-1.19-.38-.12-.43.35-.82.99-.83.36,0,.72.05,1.07.13.41.1.47.38.21.73-.32.44-.78.4-1.08.35Z"/>
        <path d="M211.83,148c-.21-.28-.42-.45-.48-.66-.16-.6-.27-1.21-.38-1.82-.06-.33.11-.64.45-.62.17,0,.45.29.49.49.11.67.16,1.36.19,2.04,0,.13-.13.27-.28.57Z"/>
        <path d="M210.27,150.81c-.68-.59-.99-1.81-.62-2.47.91.47,1.22,1.72.62,2.47Z"/>
        <path d="M210.11,145.89c.03.44-.38.86-.82.9-.4.04-.77-.25-.78-.59,0-.34.37-.66.84-.69.35-.03.66.02.76.38Z"/>
        <path d="M208.2,154.41c-.24-.21-.44-.31-.53-.47-.12-.22-.15-.5-.24-.74-.09-.26-.17-.56.18-.64.14-.03.41.17.5.33.23.4.35.84.09,1.52Z"/>
        <path d="M192.23,150.49c.26-.44.48-.86.76-1.24.08-.11.38-.17.51-.1.13.06.25.32.23.47-.05.38-.18.76-.29,1.13-.11.34-.36.63-.71.5-.2-.07-.3-.43-.49-.75Z"/>
        <path d="M190.53,146.86c-.32-1.18-.16-1.48,1.19-2.26.48.69.07,1.49-1.19,2.26Z"/>
        <path d="M194.21,147.45c-.68.31-1.1-.06-1.55-.33-.29-.18-.48-.46-.24-.72.16-.17.59-.3.76-.2.47.27.98.57,1.03,1.26Z"/>
        <path d="M195.31,151.64c.06.28.12.56.21.98-.34.01-.61.05-.88.02-.32-.04-.56-.23-.53-.58.03-.4.32-.56.68-.55.19,0,.37.11.55.16,0,0-.03-.04-.03-.04Z"/>
      </g>
      <g>
        <path d="M202.22,107.34c-.68.85-1.7.66-2.82.47-1.09-.19-2.23-.02-3.35-.08-1.49-.07-2.99-.26-4.48-.29-1.51-.03-3.03.09-4.54.1-.92,0-1.84-.1-2.76-.1-1.22,0-2.44.11-3.66.11-.48,0-.97-.11-1.44-.21-1.02-.21-2.03-.48-2.98.22-.15.11-.38.15-.56.13-1.93-.22-3.84.02-5.76.26-1.25.16-2.54-.07-3.81-.07-1.66,0-3.32.06-4.98.1-.78.02-1.56.08-2.34.04-.72-.04-1.28-.85-1.38-1.85-.29-3.16-.63-6.33-.87-9.49-.1-1.31.01-2.64,0-3.95,0-.38-.07-.78-.22-1.12-.4-.87-.37-1.71-.03-2.57.09-.23.3-.5.24-.67-.48-1.45-.17-2.96-.36-4.44-.22-1.69-.19-3.41-.34-5.11-.09-1.05-.35-2.09-.45-3.15-.12-1.16-.15-2.33-.22-3.5-.01-.24.05-.51-.04-.71-.5-1.15-.28-2.33-.17-3.49.16-1.73.11-3.47.14-5.2.03-1.99,0-3.99,0-5.98,0-1.12.17-1.33,1.39-1.39,1.1-.05,2.2.04,3.3.05.39,0,.79.03,1.15-.08,1.2-.36,2.39-.51,3.63-.18.17.05.38,0,.56-.03,1.16-.15,2.31-.36,3.48-.46,2.38-.2,4.77-.34,7.15-.5.98-.07,1.96-.23,2.93-.16.9.06,1.73-.08,2.6-.2,1.19-.17,2.42-.07,3.63-.09,2.43-.04,4.87-.08,7.3-.1.24,0,.47.12.71.19.24.07.55.26.7.17,1.7-.94,3.6-.13,5.39-.71,1.1-.35,2.43,0,3.66.03.38,0,.79.09,1.13-.03,1.37-.46,2.75-.57,4.18-.45.9.07,1.82-.14,2.74-.19,2.64-.15,5.28-.28,7.92-.42.29-.02.63.08.87-.03,1.34-.63,2.68-.45,4.06-.19.57.11,1.18,0,1.77.03,1.27.05,2.54.07,3.79.23.32.04.76.51.85.85.98,3.71,1.46,7.49,1.28,11.34-.07,1.61.14,3.23.16,4.85.01,1.39-.13,2.79-.11,4.18.02.91.21,1.82.33,2.73.06.43.17.86.16,1.29-.05,2.55-.02,5.08.23,7.62.11,1.06-.21,2.16-.25,3.25-.04,1.01.02,2.02.03,3.04.02,1.07.1,2.14.03,3.2-.09,1.61-.31,3.21-.43,4.81-.05.71.06,1.43.04,2.14-.04,1.36-.09,2.72.17,4.07.25,1.31-.38,2.12-1.71,2.13-2.63.02-5.26-.05-7.89,0-1.18.02-2.34.15-3.47-.29-1.76.55-3.57-.04-5.35.18-.39.05-.78,0-1.18,0-.78,0-1.55,0-2.33,0-.2,0-.42.1-.58.04-1.67-.61-3.3.18-4.95.14-.59-.02-1.16-.29-1.9-.49Z"/>
        <path class="cls-2" d="M228.35,54.5c.12.72.33,1.62.39,2.53.2,3.05.7,6.07.75,9.13.02,1.03-.2,2.08-.04,3.08.36,2.22-.17,4.46.33,6.67.13.59-.03,1.26-.13,1.88-.27,1.64.46,3.3-.12,4.94-.09.26-.02.59.04.88.19.9.51,1.78.61,2.69.09.85-.02,1.73-.05,2.6-.01.29-.08.58-.09.87-.03.78-.05,1.56-.07,2.34-.03.93-.09,1.86-.09,2.79,0,1.52.06,3.03.07,4.55.01,1.99,0,3.99,0,6.11-3.08-.44-6.11.35-9.21-.03-1.87-.23-3.85-.67-5.8-.07-.49.15-1.05.1-1.57.09-2.01-.04-4.01-.11-6.02-.17-.15,0-.3-.02-.44.02-2.22.62-4.45.19-6.69.2-1.61,0-3.21.15-4.84-.05-1.43-.17-2.89-.1-4.34-.18-.73-.04-1.45-.26-2.17-.24-.97.03-1.93.26-2.9.31-.86.05-1.73-.03-2.6-.04-.63,0-1.27,0-1.91.01-1.02.02-2.04.11-3.06.09-1.9-.04-3.79-.36-5.69.06-.6.13-1.3.13-1.89-.03-.75-.21-1.43-.17-2.17.01-.56.14-1.17.1-1.76.13-.34.02-.82-.13-1,.04-.65.6-1.37.35-2.07.35-1.26,0-2.51,0-3.87,0-.19-.86-.61-1.81-.16-2.85.06-.13.06-.29.05-.44-.17-1.65-.37-3.3-.53-4.96-.07-.68-.22-1.42-.04-2.05.28-.96.07-1.83-.08-2.75-.21-1.25-.35-2.51-.49-3.78-.03-.23.03-.5.13-.71.65-1.35.03-2.53-.41-4.01.4-.75.58-1.75-.02-2.83-.21-.39-.05-.96-.12-1.45-.13-.93.19-1.95-.53-2.77.41-1.31-.23-2.6-.05-3.91.04-.29.05-.63-.07-.88-.57-1.25-.27-2.53-.27-3.82,0-1.69-.23-3.37-.32-5.06-.13-2.29-.22-4.57-.33-6.86,2.63-.12,5.29.19,7.92-.4.49-.11,1.06.14,1.58.1.92-.07,1.84-.28,2.76-.36.57-.05,1.16.08,1.73.07,1.26-.02,2.52,0,3.77-.14,1.11-.12,2.16-.37,3.34-.17,1.17.2,2.42-.23,3.65-.3,1.41-.08,2.83-.04,4.24-.11,1.59-.08,3.16.53,4.76.01.45-.15.98-.08,1.47-.09.92-.02,1.86.09,2.75-.08,1.33-.26,2.63-.21,3.95-.05,1.3.16,2.53-.14,3.76-.52.41-.12.87-.27,1.26-.19,1.46.33,2.94.18,4.33-.12,1.24-.27,2.41,0,3.61-.09,1.66-.13,3.31-.34,4.97-.31,1.51.02,2.98-.42,4.46-.33,1.03.06,2.03.31,3.06-.03.26-.08.58.03.87.07,1.09.18,2.18.38,3.36.58Z"/>
        <path d="M166.37,60.66c.19.25.48.47.54.75.45,2.05.96,4.08,1.2,6.19.22,1.93.02,3.89.5,5.82.26,1.06.03,2.24.04,3.37,0,1.56-.04,3.13.07,4.69.12,1.65.39,3.28.6,4.92.34,2.68.7,5.36,1.01,8.05.06.52-.16,1.07-.14,1.6.06,1.93.14,3.85.26,5.78.02.32.27.63.36.96.13.52.08,1.13-.48,1.22-.35.05-.98-.31-1.14-.65-.29-.6-.4-1.32-.44-1.99-.09-1.26-.08-2.53-.11-3.79,0-.1.05-.21.02-.29-.61-1.72-.37-3.54-.66-5.3-.39-2.36-.7-4.75-.89-7.13-.13-1.65-.46-3.33-.37-4.92.12-1.85-.31-3.65-.04-5.53.29-2.03-.09-4.16-.2-6.25-.09-1.73-.52-3.44-.27-5.21.09-.68-.18-1.41-.29-2.11.15-.05.29-.11.44-.16Z"/>
        <path d="M202.07,75.75c-2.19.14-4.37.29-6.56.4-.88.05-1.76,0-2.64.02-.52,0-1.04.06-1.55.08-.19,0-.42.06-.58-.01-.41-.2-1.12-.44-1.13-.69-.04-.75.7-.68,1.21-.7,3.27-.12,6.55-.12,9.81-.34,1.37-.09,2.69-.12,4.07-.03,1.32.09,2.68-.46,4.04-.61.75-.08,1.54.03,2.29.19.43.09.46.74.04.91-.58.23-1.21.41-1.84.46-1.8.15-3.61.07-5.39.55-.54.15-1.16-.04-1.75-.07,0-.06-.01-.11-.02-.17Z"/>
        <path d="M173.47,82.81c.45-.1.9-.26,1.36-.29,3.06-.23,6.12-.43,9.17-.64,3.14-.21,6.28-.41,9.42-.62.19-.01.43-.13.57-.06.29.14.52.37.78.57-.23.26-.42.69-.7.76-.76.19-1.55.27-2.33.31-1.5.06-3.05-.16-4.51.12-2.72.53-5.49.19-8.21.66-1.33.23-2.72.11-4.08.08-.49-.01-.98-.26-1.47-.4,0-.16,0-.32-.01-.48Z"/>
        <path d="M199.23,81.04c.38-.21.69-.51,1-.53.97-.04,1.94.03,2.92.06.19,0,.38.06.56.02,2.03-.42,4.09-.46,6.16-.48,1.5-.02,2.99-.31,4.49-.42,1.03-.07,2.06-.08,3.09-.03.25.01.48.37.71.56-.24.18-.46.45-.73.51-.86.2-1.73.31-2.6.46-.14.02-.33.11-.42.06-.73-.42-1.39-.02-2.1.07-1.48.18-2.99.18-4.48.25-.29.01-.59-.05-.88,0-1.01.16-2.01.12-3.02.13-.99.01-2-.04-3,.03-.69.05-.78,0-1.69-.7Z"/>
        <path d="M186.18,71.51c-1.01,1.37-2.31,1.2-3.41,1.39-1.43.25-2.91.11-4.37.21-2.19.16-4.36.4-6.55.55-.75.05-1.58.15-2.12-.74.22-.17.39-.4.59-.43,1.75-.23,3.51-.41,5.26-.62.63-.08,1.25-.19,1.87-.3.24-.04.49-.22.71-.18,2.06.3,4.06-.19,6.09-.35.58-.05,1.19.27,1.93.46Z"/>
        <path d="M169.95,63.82c.31-.44.4-.7.52-.71,1.35-.18,2.7-.37,4.05-.48,2.29-.17,4.58-.29,6.87-.43,2.2-.13,4.4-.26,6.6-.38.23-.01.46.08.92.16-.26.37-.37.72-.6.83-.48.23-1.02.41-1.55.45-1.46.14-2.94.2-4.4.28-1.7.1-3.4.23-5.1.26-2.33.05-4.66.01-7.32.01Z"/>
        <path d="M192.97,89.07c-.11.17-.19.45-.35.5-.65.21-1.38.6-1.98.46-1.08-.25-2.04.16-3.05.22-2.88.16-5.75.41-8.62.61-.64.04-.74-.03-1.62-.68.72-.22,1.28-.49,1.86-.56,1.11-.13,2.24-.13,3.36-.22,1.46-.11,2.92-.3,4.39-.38,1.9-.11,3.8-.14,5.7-.19.07,0,.14.11.31.24Z"/>
        <path d="M176.79,66.55c.56-.07,1.13-.14,1.69-.2,1.32-.14,2.63-.31,3.95-.41,1.94-.15,3.88-.23,5.82-.36.34-.02.67-.14,1.01-.18,1.07-.14,2.14-.22,3.12.4-.04.73-.57.8-1.05.82-3.46.2-6.91.36-10.37.55-1.02.05-2.04.17-3.06.18-.38,0-.77-.18-1.15-.28.01-.17.03-.35.04-.53Z"/>
        <path d="M219.06,94.52c-.53.21-.77.39-1.03.4-2.04.13-4.09.28-6.13.34-1.76.05-3.53,0-5.3.01-.72,0-1.37-.05-1.7-.84.36-.82,1.08-.56,1.66-.56,1.16,0,2.33.13,3.49.09,2-.08,4-.34,5.99-.35.91,0,1.92.09,3.02.9Z"/>
        <path d="M185.8,94.92c2.48-.04,4.81-.26,7.11-.05,2.28.2,4.54-.7,6.79-.03.08.67-.32.7-.72.74-1.98.2-3.96.49-5.95.57-1.89.07-3.78-.03-5.67.15-.93.09-1.17-.14-1.56-1.38Z"/>
        <path d="M210.92,88.98c-.55.29-.87.59-1.21.63-1.75.19-3.46.57-5.25.45-1.45-.09-2.92.08-4.38.13-.73.03-1.35-.13-1.82-1.03.39-.15.71-.38,1.03-.39,1.56-.06,3.12-.05,4.67-.1.9-.03,1.8-.16,2.71-.18,1.18-.03,2.36,0,3.54.02.16,0,.32.2.71.46Z"/>
        <path d="M227.08,87.85c-1.01.5-2.09.79-3.25.85-2.01.1-4.01.28-6.02.38-1.07.05-2.15.01-3.22-.03-.19,0-.37-.24-.58-.38.32-.73.94-.85,1.49-.89,2.24-.18,4.49-.32,6.73-.41.82-.03,1.65.11,2.48.14.43.01.87-.08,1.3-.09.34,0,.69.05,1.04.09,0,.12.01.24.02.36Z"/>
        <path d="M206.71,64.62c.99-.82,2.21-.57,3.36-.68.23-.02.48.11.72.08,1.83-.21,3.65-.46,5.48-.65.63-.06,1.28-.04,1.9.08.25.05.42.46.63.71-.26.18-.5.5-.77.52-2.67.22-5.34.42-8.01.54-1.08.05-2.17-.14-3.26-.22-.01-.13-.03-.26-.04-.4Z"/>
        <path d="M200.43,68.72c3.76-.62,7.55-.86,11.37-.61.29.65.15,1.04-.53,1.07-1.07.06-2.14.06-3.21.09-2.02.07-4.04.16-6.05.21-.54.01-1.09-.12-1.63-.19.01-.19.03-.38.04-.57Z"/>
        <path d="M178.07,97.93c1.31,0,2.62,0,3.93,0,.4,0,.83-.01.9.52.07.51-.26.67-.7.74-1.01.15-2,.35-3.01.48-.68.09-1.36.11-2.04.17-.24.02-.52.14-.71.05-.55-.25-1.43-.51-1.51-.9-.15-.76.77-.69,1.28-.85.59-.18,1.22-.21,1.83-.31,0,.03.01.06.02.09Z"/>
        <path d="M160.16,73.8c2.43-.38,3.65-.17,4.41.79-.93.95-2.01.97-3.18.61-1-.3-1-.29-1.23-1.4Z"/>
        <path d="M163.46,95.04c-.49-.08-.82-.05-1.04-.2-.22-.14-.45-.46-.44-.69,0-.21.28-.49.51-.61,1.04-.55,2.09-.04,3.14.07.13.01.34.3.32.42-.04.2-.21.47-.39.52-.74.21-1.5.36-2.09.49Z"/>
        <path d="M164.14,100.03c.35.03.62,0,.83.09.44.19.56.56.29.96-.58.87-2.4,1.07-3.16.37-.37-.34-.26-.85.28-1.03.6-.19,1.24-.28,1.77-.39Z"/>
        <path d="M165.75,90.46c-.93.21-1.85.46-2.79.61-.52.09-1.02-.13-1.08-.74-.06-.57.43-.72.86-.85.77-.24,2.19.07,3.01.98Z"/>
        <path d="M161.96,61.89c.48.26,1.31.46,1.36.79.13.81-.79.74-1.28.85-.65.14-1.36.07-2.03-.04-.2-.03-.44-.48-.47-.76-.01-.16.36-.46.59-.5.57-.1,1.16-.09,1.74-.13.03-.07.05-.14.08-.21Z"/>
        <path d="M165.73,85.69c-.53,1.42-1.96,1.64-4.06.74.75-.84,2.1-1.1,4.06-.74Z"/>
        <path d="M164.97,78.67c-1.2.68-2.26.9-3.36.83-.24-.01-.6-.37-.66-.63-.11-.44.21-.67.66-.79,1.1-.28,2.11-.12,3.36.58Z"/>
        <path d="M164.57,82.23c-.04.8-.57,1.02-1.1,1.06-.61.05-1.24-.02-1.83-.14-.15-.03-.34-.5-.29-.72.05-.23.34-.47.58-.58.49-.23,1.98,0,2.64.37Z"/>
        <path d="M165.52,97.48c-.24.29-.39.66-.57.68-.82.07-1.66.09-2.48,0-.21-.02-.49-.45-.53-.73-.03-.16.35-.56.53-.56.99.04,2.03-.03,3.05.6Z"/>
        <path d="M163.98,69.8c-1.05,1.09-2.49,1.09-3.62-.05.37-.18.8-.55.99-.45.82.41,1.87-.62,2.62.5Z"/>
        <path d="M162.17,65.5c.13.13.61.39.64.69.06.58-.45.66-.94.58-.48-.08-.97-.15-1.44-.28-.14-.04-.3-.28-.3-.42,0-.14.19-.38.32-.4.48-.09.96-.1,1.71-.17Z"/>
      </g>
      <g>
        <path d="M143.31,40.49c-.63.8-1.37.83-2.06.55-.95-.39-1.84.15-2.77.01-1.01-.14-2.04-.19-3.06-.25-.53-.03-1.06.03-1.59.01-1.51-.04-3.02-.11-4.54-.15-.36,0-.72.04-1.07.11-.98.21-1.91-.12-2.87-.18-.18-.01-.4-.14-.52-.07-1.32.76-2.78.32-4.16.43-2.27.19-4.57.12-6.85.17-.64.01-1.27.08-1.91.09-1,.02-1.47-.39-1.57-1.34-.24-2.42-.48-4.84-.72-7.27-.02-.21.06-.43.05-.64-.02-1.06.2-2.13-.26-3.18-.17-.4.03-.98.09-1.47.03-.21.22-.42.18-.6-.19-.9-.11-1.83-.2-2.72-.16-1.5-.51-2.97-.26-4.48.02-.1.02-.22,0-.32-.19-1.05-.47-2.09-.56-3.15-.13-1.45-.17-2.92-.14-4.37.02-1.52.12-3.03,0-4.55-.1-1.24.05-2.5.11-3.75.02-.41.22-.69.68-.67.49.02.99.08,1.48.06.82-.03,1.63-.11,2.45-.18.18-.02.35-.16.52-.13,1.9.26,3.73-.5,5.66-.31,1.43.14,2.9-.22,4.36-.33.92-.07,1.85-.09,2.77-.14.24-.01.49-.03.73-.06.46-.06.95-.29,1.37-.19,1.05.26,2.1.08,3.1-.03,1.27-.15,2.5-.02,3.74.04.32.02.63.09.95.13.14.02.32.11.42.06,1.27-.73,2.71,0,4.05-.54.72-.29,1.7.08,2.56.08.45,0,.89-.16,1.34-.23.49-.07.98-.13,1.47-.17,1.31-.1,2.61-.21,3.92-.28,1.58-.07,3.16-.1,4.74-.15.32-.01.7.07.96-.06.99-.49,1.97-.18,2.96-.1.39.03.78,0,1.17.01.97.05,1.94.09,2.89.21.2.03.47.36.53.6.66,2.65,1.08,5.33.93,8.09-.07,1.25.11,2.51.12,3.76,0,1.02-.1,2.04-.08,3.06.01.67.16,1.33.25,2,.04.32.12.63.11.95-.03,1.86.04,3.72.13,5.58.04.74.08,1.57-.12,2.37-.16.66,0,1.4,0,2.11.01.71.06,1.42.02,2.13-.07,1.25-.21,2.49-.28,3.74-.04.74.11,1.49,0,2.21-.13.84.02,1.64.13,2.45.12.91-.3,1.67-1.14,1.55-.96-.14-1.84.14-2.77.1-1.39-.07-2.78,0-4.17-.01-.21,0-.43-.05-.64-.09-.25-.04-.5-.17-.74-.14-1.31.16-2.63.08-3.94.03-1.21-.04-2.43-.06-3.64-.05-.89.01-1.78.06-2.66.18-.6.08-1.15.13-1.64-.53Z"/>
        <path class="cls-2" d="M111.05,24.07c.36-.66.44-1.38.03-2.17-.2-.38-.18-.92-.15-1.37.04-.54,0-.99-.24-1.53-.25-.56-.12-1.3-.1-1.97.02-.79,0-1.55-.28-2.33-.19-.53-.09-1.18-.04-1.77.08-1.06.03-2.11-.12-3.16-.05-.35-.11-.72-.07-1.07.18-1.45-.12-2.86-.26-4.28-.02-.17.03-.35.05-.64,1.18,0,2.36.02,3.53,0,.71-.02,1.43-.14,2.14-.2.21-.02.42,0,.63-.01.82-.06,1.64-.13,2.46-.19.56-.04,1.1-.07,1.68.05.78.15,1.64.05,2.44-.1.86-.17,1.67-.29,2.56-.16.59.08,1.21-.1,1.82-.15.99-.09,1.98-.17,2.97-.25.18-.01.37-.05.54-.02,1.55.24,3.09.15,4.65.11,1.73-.04,3.46-.46,5.2-.16.94.16,1.86-.07,2.76-.36.35-.11.75-.1,1.12-.12.85-.04,1.71-.04,2.55-.11,1.03-.08,2.05-.11,3.08-.08,1.15.04,2.3-.06,3.44-.2.46-.06.89-.21,1.36-.02.18.07.42.01.63-.01.5-.06.99-.18,1.48-.2.79-.04,1.57-.03,2.36-.04.11,0,.22,0,.32.02.88.14,1.75.28,2.72.44.1,1.02.21,2.12.33,3.21.2,1.72.42,3.44.43,5.17.01.9-.05,1.79-.02,2.69.06,1.52.19,3.03.25,4.55.02.49-.02,1-.09,1.49-.17,1.2.32,2.42-.1,3.62-.03.09,0,.22.02.32.16.69.39,1.38.46,2.08.07.66-.04,1.34-.06,2.01,0,.07.06.14.06.2-.07,1.43-.15,2.85-.23,4.28-.01.25-.04.5-.03.76.06,1.68.14,3.36.19,5.04.01.6-.06,1.2-.11,1.89-.58,0-1.14-.05-1.7,0-2.26.22-4.51.12-6.76-.08-.9-.08-1.77-.04-2.66.07-.84.1-1.72-.16-2.56-.08-1.53.14-3.07-.12-4.59.32-.62.18-1.35.08-2.02-.02-1.98-.28-3.99.21-5.98-.33-.79-.21-1.7.03-2.55.07-.18,0-.4.09-.53.02-.95-.51-1.88-.01-2.82.01-.67.02-1.35-.06-2.03-.09-.32-.01-.67-.1-.96-.01-.93.27-1.84.16-2.78.07-.77-.07-1.56.05-2.33-.03-1.19-.13-2.37.43-3.56-.01-.27-.1-.63.09-.95.12-.53.04-1.06.05-1.59.07-.14,0-.32-.04-.42.03-.75.55-1.59.29-2.4.32-.46.02-.93.07-1.39.14-.49.08-.75-.05-.77-.6-.03-.52-.31-1.04-.01-1.57.06-.12.06-.29.05-.43-.14-1.24-.29-2.49-.42-3.73-.05-.46-.13-.97,0-1.39.2-.66.07-1.26-.05-1.9-.17-.91-.26-1.84-.36-2.76-.02-.2.03-.43.1-.62.39-.98.08-1.87-.37-2.84Z"/>
        <path d="M116.66,6.63c.58-.01.62.33.72.63.66,2.09.82,4.27,1.02,6.44.18,2.06.38,4.14.27,6.2-.08,1.62.21,3.2.25,4.8.05,1.78.52,3.54.75,5.32.09.66.02,1.35.05,2.02.03.49.13.97.15,1.46.02.46.04.94-.03,1.4-.11.79-.01,1.55.25,2.3.2.58.07,1-.32,1.08-.4.08-.85-.22-.91-.73-.15-1.24-.23-2.48-.35-3.73-.03-.34-.1-.68-.14-1.02-.06-.66-.09-1.33-.16-1.99-.15-1.32-.35-2.63-.5-3.95-.12-1.1-.2-2.21-.3-3.32-.08-.88-.19-1.76-.24-2.64-.03-.49.15-1.01.06-1.48-.29-1.53,0-3.05-.05-4.57-.03-1.03-.17-2.06-.21-3.09-.05-1.16-.41-2.3-.16-3.48.03-.16-.09-.34-.1-.52-.03-.37-.04-.74-.06-1.13Z"/>
        <path d="M142.05,17.58c-1.43.1-2.86.18-4.29.3-.96.08-1.91-.21-2.87.04-.16.04-.38,0-.52-.08-.19-.12-.32-.32-.48-.48.16-.12.3-.28.48-.36.19-.09.42-.15.63-.14,2.4.21,4.78-.08,7.16-.24.9-.06,1.76-.14,2.65.02.3.05.63-.05.95-.1.84-.14,1.68-.31,2.53-.42.74-.1,1.48.16,1.55.48.07.34-.52.7-1.38.77-.71.06-1.44.06-2.15.09-.64.03-1.26.06-1.9.23-.73.19-1.56-.02-2.35-.06,0-.02,0-.04,0-.05Z"/>
        <path d="M122.14,22.71c.41-.08.81-.2,1.22-.22,1.1-.07,2.2-.07,3.3-.15,1.18-.08,2.35-.21,3.52-.32,1.06-.09,2.11-.19,3.17-.27.42-.03.84-.02,1.25-.04.64-.04,1.27-.09,1.91-.13.22-.01.45-.06.64,0,.21.07.38.26.57.4-.17.2-.31.51-.52.57-.51.15-1.05.21-1.59.24-1.49.09-2.99.05-4.49.24-1.89.24-3.82.17-5.74.24-.74.03-1.49.11-2.23.09-.36,0-.71-.2-1.06-.31.02-.12.03-.23.05-.35Z"/>
        <path d="M140.86,21.66c.32-.29.45-.51.6-.53.63-.09,1.29-.24,1.9-.14.48.08.88.04,1.35-.01,1.23-.15,2.48-.19,3.72-.27,1.19-.08,2.39-.17,3.58-.22.79-.04,1.58-.03,2.37,0,.15,0,.28.24.42.37-.14.14-.29.42-.41.4-1-.12-1.94.54-2.97.16-.26-.09-.65.28-.99.3-1.03.06-2.06.06-3.1.09-.29,0-.57.06-.85.07-.64.02-1.28.02-1.92.04-.77.02-1.55.08-2.32.05-.4-.01-.79-.17-1.38-.3Z"/>
        <path d="M131.4,14.52c-.78.91-1.78.77-2.65.95-.34.07-.71,0-1.06.01-2.21.11-4.41.38-6.61.6-.62.06-1.17-.09-1.67-.39l-.02-.27c.27-.11.53-.29.8-.32,1.35-.14,2.71-.23,4.06-.37.39-.04.77-.33,1.14-.3,1.61.16,3.17-.23,4.76-.32.38-.02.78.25,1.25.41Z"/>
        <path d="M133.44,7.62c-.55.83-1.31.78-1.99.84-1.24.12-2.48.17-3.72.26-.11,0-.22.07-.32.05-1.75-.24-3.49.1-5.23.09-.81,0-1.62,0-2.48,0,.06-.26.07-.44.11-.44,1.01-.18,1.98-.52,3.05-.51,1.74.01,3.48-.15,5.22-.25,1.6-.09,3.2-.21,4.8-.29.15,0,.3.14.56.27Z"/>
        <path d="M124.54,10.98c.15-.08.29-.21.45-.23,2.24-.23,4.49-.44,6.73-.65.82-.08,1.65-.18,2.47-.18.59,0,1.18.15,1.84.24-.14.63-.5.74-.9.76-2.51.14-5.02.28-7.53.4-.79.04-1.58.06-2.37.06-.23,0-.45-.11-.68-.16,0-.08,0-.16-.01-.24Z"/>
        <path d="M136.39,27.47c-.51.49-1.22.64-1.84.55-.67-.1-1.28.07-1.91.12-1.63.14-3.25.39-4.88.52-.76.06-1.54-.06-2.31-.12-.12,0-.23-.12-.38-.2.18-.52.65-.47.98-.6.19-.08.43-.06.64-.08,2.11-.17,4.21-.36,6.32-.48,1.11-.07,2.22-.01,3.33-.01.02.1.04.21.05.31Z"/>
        <path d="M155.26,31.53c-1.19.09-2.38.2-3.57.26-1.1.06-2.2.08-3.31.1-.78.01-1.57.05-2.35-.03-.34-.03-.65-.32-1-.5.38-.69.91-.51,1.32-.48,1.83.12,3.64-.02,5.46-.14,1.01-.07,2.01-.15,3,.16.18.06.33.19.49.29-.02.11-.03.23-.05.34Z"/>
        <path d="M141.59,31.76c-.43.18-.64.33-.86.35-1.73.21-3.46.43-5.23.35-1.05-.05-2.11.11-3.16.13-.3,0-.63-.1-.9-.24-.14-.07-.28-.37-.24-.51.04-.13.32-.27.5-.27,1.93-.02,3.85,0,5.78-.04.78-.01,1.56-.15,2.35-.19.52-.02,1.07-.1,1.76.41Z"/>
        <path d="M140.29,27.43c.6-.55,1.29-.47,1.89-.4.96.11,1.9-.07,2.85-.06,1.24.01,2.49-.05,3.73-.06.2,0,.41.15.61.23,0,.08.01.17.02.26-.41.15-.82.4-1.24.42-2.22.13-4.44.19-6.67.28-.5.02-.93-.07-1.21-.67Z"/>
        <path d="M151.78,26.95c.4-.48.86-.58,1.38-.61,1.79-.09,3.58-.25,5.37-.3.91-.03,1.83.09,2.88.15-.19.22-.3.45-.44.47-.73.14-1.46.25-2.2.33-1.39.14-2.78.27-4.17.36-.78.05-1.57.02-2.36-.02-.15,0-.29-.23-.46-.38Z"/>
        <path d="M155.31,9.23c-.15.08-.26.18-.39.19-2.02.15-4.04.35-6.06.42-.79.03-1.66.25-2.45-.3.32-.45.77-.5,1.23-.54,1.89-.14,3.77-.3,5.66-.44.43-.03.86-.04,1.29-.03.4.02.65.23.71.7Z"/>
        <path d="M141.8,12.48c.49-.13.97-.34,1.46-.37,1.1-.09,2.2-.09,3.3-.12,1.09-.03,2.19-.08,3.28-.08.15,0,.3.24.45.36-.15.16-.3.44-.46.45-1.34.09-2.68.13-4.03.17-1.07.03-2.14.05-3.21.06-.26,0-.51-.07-.77-.1-.01-.12-.02-.25-.04-.37Z"/>
        <path d="M126.55,34.98c-.53.07-1.06.2-1.59.2-.49,0-.99-.09-1.46-.21-.15-.04-.31-.28-.34-.46-.02-.09.19-.29.34-.35.69-.28,1.39-.45,2.16-.35.7.08,1.41-.02,2.12-.04.29,0,.59-.03.86.05.16.05.37.27.38.43,0,.15-.19.42-.34.46-.69.17-1.4.28-2.1.41,0-.05-.02-.09-.02-.14Z"/>
        <path d="M115.56,16.85c-.89.56-1.8.55-2.69.17-.23-.1-.49-.46-.49-.7,0-.34.35-.34.67-.3.63.07,1.27.07,1.91.13.35.03.61.19.61.71Z"/>
        <path d="M116.72,30.65c-.13.32-.16.58-.25.61-.68.17-1.37.34-2.07.4-.22.02-.61-.29-.68-.53-.13-.4.26-.59.59-.59.77,0,1.53.07,2.42.12Z"/>
        <path d="M114.76,7.89c-.47.82-2.1,1.14-2.72.59-.26-.23-.17-.75.17-.75.83,0,1.69-.54,2.55.16Z"/>
        <path d="M116.21,35.72c-.06.55-1.07,1.17-1.58,1-.36-.12-.96-.09-.97-.66,0-.57.58-.44.9-.55.36-.13.78-.12,1.16-.09.19.02.36.22.48.31Z"/>
        <path d="M116.46,28.21c-.72.49-1.54.6-2.38.5-.17-.02-.38-.31-.42-.51-.03-.13.18-.41.34-.47.29-.11.63-.16.94-.12.51.05,1.01.19,1.52.29,0,.1,0,.2,0,.31Z"/>
        <path d="M113.27,25.22c1.17-.27,2.1-.95,3.19-.29-.07.63-.5.75-.99.76-.7.01-1.43.18-2.19-.48Z"/>
        <path d="M115.95,19.8c-.98.28-1.73.65-2.6.48-.16-.03-.4-.28-.39-.4.03-.2.2-.49.37-.55.85-.28,1.66-.13,2.62.48Z"/>
        <path d="M116.45,33.68c-.49.19-.8.39-1.11.4-.49,0-.98-.1-1.46-.21-.11-.03-.23-.29-.21-.43.02-.13.21-.36.32-.35.76.02,1.57-.22,2.46.6Z"/>
        <path d="M114.25,22c.65-.03,1.13-.13,1.32.41.12.34-.29.61-1.02.68-.25.03-.53.11-.74.03-.23-.09-.52-.31-.57-.52-.08-.38.23-.57.59-.6.21-.02.43,0,.42,0Z"/>
        <path d="M112.57,13.23c.54-.72,1.34-.11,1.95-.44.12-.06.41.19.79.39-.32.25-.53.54-.72.53-.67-.05-1.46.43-2.02-.48Z"/>
        <path d="M113.41,10.07c.21.02.46-.03.63.07.15.09.26.33.27.51,0,.1-.23.3-.36.3-.43,0-.86-.03-1.29-.1-.13-.02-.22-.24-.33-.36.15-.12.27-.3.44-.35.19-.06.42-.01.63-.01,0-.02,0-.03,0-.05Z"/>
      </g>
      <g>
        <path d="M38.94,82.84c-.52.62-1.26.58-2.13.46-1.06-.15-2.16-.05-3.23-.1-1.07-.05-2.13-.19-3.2-.24-1.13-.05-2.28-.19-3.38-.02-1.02.16-1.99-.15-2.99-.04-.8.09-1.63-.09-2.41.06-.6.11-1.11.01-1.66-.1-.79-.17-1.58-.38-2.34.15-.15.11-.39.16-.58.14-1.55-.16-3.07.02-4.61.22-1.06.14-2.17-.07-3.25-.06-1.36,0-2.72.06-4.08.09-.64.02-1.28.07-1.92.03-.58-.04-1.07-.86-1.14-1.66-.2-2.16-.44-4.31-.65-6.46-.07-.72-.07-1.44-.08-2.16-.02-1.23.23-2.45-.26-3.68-.19-.46.04-1.1.11-1.66.02-.19.23-.41.18-.56-.41-1.2-.11-2.44-.28-3.65-.19-1.35-.19-2.73-.29-4.09-.03-.39-.08-.78-.13-1.17-.17-1.47-.65-2.91-.4-4.42.01-.08.05-.17.03-.24-.5-1.47-.09-2.93-.1-4.4,0-1.06.03-2.15,0-3.22-.05-1.23,0-2.46.02-3.69,0-.16.05-.33.02-.48-.39-1.79.38-1.92,2.02-1.78,1.11.09,2.2.19,3.29-.14.15-.05.32-.14.46-.13,2.05.28,4.05-.41,6.1-.31,1.63.08,3.27-.23,4.91-.35,1-.07,2.01-.1,3.01-.16.39-.02.78-.08,1.18-.12.71-.07,1.39-.18,2.14-.12,1.19.1,2.4-.11,3.6-.16.69-.03,1.38-.06,2.06,0,.87.07,1.73.22,2.6.33.12.02.27.09.35.04,1.38-.8,2.95-.12,4.42-.6.9-.29,2,.03,3,.06.31,0,.65.04.93-.06,1.08-.4,2.18-.43,3.32-.36.79.04,1.58-.12,2.38-.16,2.05-.11,4.1-.21,6.15-.32.4-.02.83,0,1.19-.13.91-.35,1.81-.31,2.75-.15.59.1,1.21.07,1.81.1,1.04.05,2.09.05,3.12.17.27.03.64.41.7.7.45,1.96,1.02,3.9,1.03,5.93,0,.92.01,1.83.04,2.75.04,1.37.12,2.74.14,4.11.02,1.72-.24,3.49.04,5.16.3,1.81.21,3.61.26,5.39.04,1.29.34,2.58.04,3.92-.22.96.04,2.02.05,3.04.02,1.28.06,2.56,0,3.83-.06,1.28-.33,2.56-.35,3.84-.03,1.71.02,3.42.17,5.12.11,1.28-.39,1.87-1.71,1.85-1.44-.02-2.88.16-4.31.05-1.52-.11-3.06.27-4.55-.25-.04-.01-.08-.04-.12-.03-1.43.27-2.86.15-4.29.07-.44-.02-.88.04-1.32.04-.52,0-1.04-.03-1.56-.02-.2,0-.42.14-.59.08-1.42-.47-2.79.13-4.19.12-.44,0-.88-.24-1.52-.43Z"/>
        <path class="cls-2" d="M60.4,39.21c.15,1.31.33,2.58.45,3.86.18,1.89.35,3.79.47,5.69.06,1-.12,2.01.01,2.99.24,1.75-.15,3.52.28,5.27.11.43-.15.94-.15,1.42,0,.8.12,1.6.14,2.4,0,.47-.13.95-.12,1.43.03.84.02,1.7.22,2.51.12.49.27.91.05,1.39-.05.11-.05.24-.05.36.04,1.47.1,2.95.13,4.42,0,.36-.02.73-.05,1.09-.04.56-.14,1.13-.12,1.69.05,1.84.16,3.67.2,5.51.01.67-.1,1.33-.16,2.03-.03.02-.09.11-.15.12-1.85.03-3.7.12-5.55.07-1.64-.05-3.27-.26-4.91-.39-.23-.02-.47.06-.71.1-1.07.18-2.12.21-3.21.09-1.03-.12-2.1-.05-3.14.02-.95.07-1.9.34-2.85.37-1.08.03-2.17-.12-3.25-.16-.56-.02-1.11.04-1.67.05-.52,0-1.05.06-1.57-.02-1.79-.26-3.59-.26-5.39-.27-.2,0-.44.09-.6,0-1.04-.52-2.07-.05-3.08.07-.77.09-1.5.16-2.26-.05-.45-.12-.99-.13-1.44,0-.93.27-1.83.05-2.75.04-1.52,0-3.05-.36-4.56.12-.08.02-.16.05-.24.03-1.52-.33-3.04-.03-4.55.01-.24,0-.57-.1-.71.02-.56.48-1.2.31-1.81.33-1.02.03-2.05,0-3.15,0-.11-.78-.49-1.58-.09-2.43.05-.1.08-.26.04-.36-.56-1.35-.14-2.8-.47-4.18-.12-.49-.13-1.06,0-1.55.18-.74.11-1.44-.09-2.14-.41-1.42-.58-2.83-.11-4.28.18-.57-.21-2.01-.61-2.65.4-.78.47-1.54.1-2.42-.24-.59-.15-1.33-.19-2,0-.16.12-.38.06-.47-.59-.77-.2-1.69-.42-2.52-.16-.6,0-1.27-.05-1.9-.07-.87-.46-1.68-.38-2.6.1-1.07.05-2.16.03-3.24,0-.35-.17-.7-.19-1.05-.1-2.2-.17-4.41-.25-6.49,2.16-.15,4.33-.32,6.5-.45.43-.03.87.12,1.3.08.76-.06,1.51-.22,2.27-.3.4-.04.82-.1,1.19,0,1.08.29,2.16.12,3.22-.02.95-.13,1.85-.36,2.86-.17.92.17,1.92-.17,2.88-.21,1.23-.06,2.47-.05,3.71-.07,1.26-.02,2.53-.04,3.79-.07.41,0,.81-.05,1.22-.06.76-.02,1.53.08,2.26-.07,1.1-.21,2.17-.17,3.25-.04,1.07.13,2.08-.13,3.09-.43.33-.1.71-.22,1.03-.15,1.2.28,2.42.16,3.55-.1,1.03-.23,1.99.02,2.98-.08,1.36-.13,2.72-.19,4.08-.29.08,0,.17-.09.23-.07,1.47.42,2.92-.6,4.39-.02,1.37-.33,2.7.07,4.05.24.3.04.62-.04.99-.08Z"/>
        <path d="M9.48,44.46c.15.22.4.42.45.66.31,1.66.97,3.25.88,4.98-.03.64.14,1.28.2,1.92.26,3.03.33,6.07.46,9.11.08,1.88.34,3.76.56,5.63.18,1.56.46,3.12.63,4.68.07.6,0,1.21-.04,1.82-.03.51-.23,1.01.14,1.51.13.17,0,.53-.01.81-.04,1.16-.23,2.31.32,3.43.25.5.04,1.04-.36,1.13-.53.11-.83-.23-1.02-.66-.08-.18-.11-.39-.13-.59-.1-1.36-.17-2.72-.29-4.08-.11-1.29-.24-2.58-.42-3.87-.38-2.75-.81-5.49-.87-8.28-.03-1.67-.28-3.34-.43-5.01-.01-.12-.03-.25,0-.36.31-1.47.18-2.92.01-4.4-.13-1.12-.06-2.26-.13-3.38-.08-1.35-.22-2.69-.31-4.03-.02-.32.07-.65.1-.98.08,0,.16-.02.24-.02Z"/>
        <path d="M46.54,55.86c-.45.64-1.07.71-1.66.76-1.56.13-3.13.08-4.68.45-.64.15-1.36-.08-2.04-.07-1.56.04-3.12.14-4.69.18-.88.03-1.77-.01-2.65-.02-.54,0-1.09.04-1.63,0-.3-.02-.76-.07-.63-.52.06-.22.45-.46.7-.48.92-.06,1.84,0,2.76-.05,2.29-.14,4.57-.32,6.86-.48.24-.02.51-.06.72.01,1.64.54,3.17-.22,4.75-.39.74-.08,1.4,0,2.19.6Z"/>
        <path d="M33.05,61.84c-.77.92-1.65.79-2.4.86-1.27.12-2.58-.04-3.83.14-2.28.33-4.58.16-6.86.49-1.18.17-2.4.1-3.6.07-.36,0-.71-.23-1.06-.36,0-.1,0-.19,0-.29.27-.1.53-.27.81-.29,2.28-.14,4.56-.21,6.83-.38,1.66-.12,3.31-.38,4.97-.52,1.4-.12,2.8-.17,4.2-.2.26,0,.53.26.92.46Z"/>
        <path d="M36.56,61.08c.36-.1.71-.28,1.07-.29.72-.02,1.43.06,2.15.09.08,0,.17.04.24.03,1.79-.43,3.6-.41,5.42-.44,1.84-.03,3.67-.26,5.51-.38.41-.03,1.05-.18,1.08.44.03.69-.64.4-1.02.49-.51.11-1.03.19-1.54.28-.19.04-.45.17-.57.1-.58-.35-1.07,0-1.61.07-1.18.14-2.38.15-3.57.21-.6.03-1.21.07-1.81.08-.43.01-.86-.02-1.29-.01-.32,0-.64.05-.95.04-.9-.03-1.8-.07-2.7-.14-.13,0-.24-.17-.37-.27,0-.11,0-.21-.01-.32Z"/>
        <path d="M12.11,54.59c.32-.18.52-.39.75-.42,1.52-.18,3.05-.32,4.57-.48.28-.03.57-.05.83-.14.54-.2,1.05-.22,1.64-.13.73.11,1.51-.09,2.27-.16.6-.06,1.21-.1,1.79-.23.67-.14,1.14.17,1.68.46-.75,1.05-1.85.9-2.79,1.05-1.1.18-2.23.08-3.35.16-1.84.13-3.67.33-5.51.48-.63.05-1.28.05-1.88-.58Z"/>
        <path d="M12.58,46.87c.13-.15.24-.4.4-.44,1.92-.48,3.89-.46,5.85-.53.96-.04,1.93-.1,2.89-.16,1.89-.11,3.77-.22,5.66-.33.11,0,.23.05.33.07.31.4.06.66-.24.79-.41.17-.86.35-1.28.33-2.01-.1-3.99.53-6.01.23-.35-.05-.72.09-1.08.1-.59.02-1.19,0-1.79,0-.2,0-.41-.03-.61-.02-1.32.07-2.63.14-3.95.21-.06-.08-.12-.17-.17-.25Z"/>
        <path d="M18.59,69.04c1.34-.92,10.33-1.66,12.75-1.3-.14.21-.21.48-.36.53-.53.17-1.08.33-1.64.39-.83.09-1.66.09-2.5.14-2.36.16-4.71.35-7.07.49-.39.02-.79-.16-1.18-.26Z"/>
        <path d="M18.03,49.39c.36-.08.72-.19,1.09-.23,1.08-.12,2.16-.23,3.25-.3,1.72-.12,3.44-.21,5.15-.33.28-.02.55-.13.83-.16.88-.1,1.75-.16,2.77.5-.49.22-.81.48-1.15.5-2.84.18-5.68.31-8.52.47-.76.04-1.52.15-2.28.17-.37,0-.75-.12-1.13-.18,0-.14,0-.29,0-.43Z"/>
        <path d="M52.59,72.38c-.2.09-.4.25-.61.27-1.72.11-3.45.23-5.17.28-1.41.04-2.82,0-4.24,0-.83,0-1.38-.26-1.39-.66-.01-.42.56-.56,1.44-.48.91.08,1.84.12,2.75.08,1.64-.07,3.29-.28,4.93-.3.76,0,1.53.29,2.29.45,0,.12,0,.24,0,.36Z"/>
        <path d="M37.08,72.73c-.33.21-.52.42-.72.44-1.7.19-3.41.43-5.11.49-1.51.05-3.02-.05-4.52.13-.71.09-1.1-.22-1.4-1.01.9-.1,1.71-.2,2.51-.26.43-.03.86,0,1.29,0,.04,0,.08,0,.12,0,2.44-.01,4.89-.03,7.33-.03.07,0,.14.07.5.26Z"/>
        <path d="M45.91,67.95c-.48.14-.95.37-1.44.42-1.51.15-3.03.24-4.55.33-.84.05-1.68.05-2.52.06-.28,0-.6.05-.83-.07-.29-.15-.68-.43-.7-.68-.04-.52.49-.43.82-.44,1.24-.04,2.47-.03,3.71-.07.7-.02,1.4-.11,2.1-.13,1.01-.02,2.02-.02,3.03,0,.13,0,.25.17.37.26,0,.1,0,.21,0,.31Z"/>
        <path d="M59.43,66.88c-.75.22-1.49.58-2.25.65-2.25.19-4.51.27-6.76.36-.52.02-1.04-.07-1.74-.12.13-.31.16-.61.32-.71.26-.17.6-.28.91-.3,1.85-.13,3.69-.25,5.54-.33.68-.03,1.36.1,2.04.12.36,0,.72-.09,1.07-.09.28,0,.57.07.85.11,0,.1.01.21.02.31Z"/>
        <path d="M52.66,47.45c-.26.13-.48.32-.72.34-2.19.17-4.39.34-6.58.44-.89.04-1.78-.11-2.89-.18.49-.7.99-.76,1.49-.81,1.03-.09,2.08-.28,3.1-.21,1.5.1,2.93-.35,4.41-.35.55,0,.92.17,1.19.77Z"/>
        <path d="M37.41,51.17c.49-.13.97-.35,1.46-.38,2.45-.11,4.9-.17,7.34-.25.34-.01.7-.02.74.41.03.4-.27.53-.64.54-.8,0-1.59.04-2.39.04-1.35,0-2.69-.02-4.04,0-.55.01-1.11.16-1.66.18-.29,0-.58-.14-.87-.22.02-.11.04-.22.06-.33Z"/>
        <path d="M16.14,75.75c.9-.27,1.56-.6,2.25-.65,1.24-.08,2.48,0,3.73.02.16,0,.35-.04.48.03.19.11.45.29.46.45.01.17-.21.47-.38.51-.86.19-1.73.33-2.6.46-.6.08-1.2.1-1.8.15-.75.07-1.41-.09-2.12-.96Z"/>
        <path d="M7.98,56.02c-1.08.8-2.13.65-3.17.23-.39-.16-.63-.5-.39-.97,1.92-.37,3.05-.15,3.56.74Z"/>
        <path d="M7.07,72.67c-.16,0-.32.03-.48.03-.42,0-.7-.22-.74-.64-.03-.4.3-.46.61-.61.82-.41,1.57.11,2.35.1.1,0,.3.22.29.32-.02.17-.14.42-.27.46-.56.18-1.15.29-1.72.43l-.02-.09Z"/>
        <path d="M8.95,68.97c-.73.17-1.45.37-2.18.51-.48.1-.95-.07-1.02-.59-.08-.5.4-.67.79-.73.87-.14,1.67.09,2.44.4-.01.13-.02.27-.03.4Z"/>
        <path d="M7.91,76.79c.19.14.56.28.67.53.06.15-.25.53-.47.71-.63.49-1.31.57-1.99.08-.15-.11-.34-.33-.31-.45.05-.2.23-.45.42-.51.49-.16,1.01-.22,1.69-.36Z"/>
        <path d="M7.22,46.19c-1.02.77-1.97.9-2.98.63-.19-.05-.43-.31-.44-.49-.01-.17.21-.52.36-.53.83-.07,1.66-.07,2.49-.05.15,0,.29.22.58.44Z"/>
        <path d="M8.33,59.33c-1.09.49-1.97.75-2.92.61-.18-.03-.4-.38-.44-.6-.02-.14.24-.44.42-.49.91-.26,1.81-.21,2.94.48Z"/>
        <path d="M5.63,65.72c.47-.78,1.8-1.04,3.24-.62-.3,1.11-1.23,1.28-3.24.62Z"/>
        <path d="M8.01,62.27c-.09.58-.5.77-.94.82-.47.05-.95.04-1.41-.05-.15-.03-.35-.36-.35-.55,0-.19.22-.51.38-.53.79-.08,1.64-.45,2.33.31Z"/>
        <path d="M8.91,74.96c-.46.2-.73.42-1,.43-.6.02-1.2-.04-1.79-.14-.14-.02-.29-.37-.29-.57,0-.14.21-.34.37-.42.39-.18,1.99.19,2.72.71Z"/>
        <path d="M4.53,51.87c.34-.13.71-.39.88-.3.65.34,1.46-.51,2.01.34,0,.42-.28.71-.66.65-.72-.12-1.63.57-2.24-.69Z"/>
        <path d="M5.85,48.45s.21,0,.31.08c.16.13.38.35.37.51-.02.17-.28.45-.43.45-.55-.03-1.09-.14-1.64-.25-.08-.02-.2-.2-.18-.28.03-.13.14-.32.25-.35.38-.08.78-.1,1.31-.15Z"/>
      </g>
      <g>
        <g>
          <path d="M160.37,134.52c-.46.04-.82.06-1.18.1-.26.02-.52.09-.77.09-.78-.02-1.56-.14-2.33-.07-1.05.08-2.08.29-3.12.46-1.02.16-2.08.06-3.06.47-.06.02-.13,0-.2,0-.86.03-1.72.06-2.52.47-.34.17-.69.04-.72-.26-.08-.65-.61-1.03-.8-1.56-.41-1.17-1.29-1.81-2.29-2.36-.32-.17-.65-.46-.97-.45-.73.01-1.5-.42-2.21.12-.09.07-.26.02-.39.02-1.58-.06-3.07.34-4.5.97-.27.12-.55.24-.84.3-.76.15-1.45.43-2.06.91-.54.43-1.03.36-1.63.02-.68-.37-1.13-1.14-2.01-1.18-.1,0-.18-.18-.28-.26-.18-.14-.36-.31-.56-.38-1.17-.4-2.17-1.06-3.04-1.92-.17-.17-.45-.25-.7-.33-.73-.25-1.38-.7-1.43-1.46-.1-1.71-.68-3.33-.72-5.05-.02-1.21-.32-2.4-.49-3.61-.09-.62-.16-1.24-.25-1.86-.23-1.6-.48-3.19-.7-4.79-.07-.51-.05-1.03-.14-1.54-.1-.61-.28-1.21-.4-1.82-.17-.79-.06-1.66-.66-2.34-.07-.08-.02-.25-.03-.38-.08-.88-.06-1.78-.25-2.64-.3-1.33-1.16-2.41-1.81-3.59-.13-.23-.47-.35-.71-.51-.27-.18-.55-.36-.83-.53-.5-.3-.99-.65-1.52-.89-.71-.32-1.47-.55-2.2-.83-.79-.3-1.56-.68-2.38-.9-1.7-.46-3.46-.68-5.11-1.59.29-1.02.58-2.04.88-3.11.44.08.86.26,1.26.22.79-.08,1.67.18,2.3-.57.07-.08.25-.08.38-.07.92.06,1.74-.33,2.54-.68.92-.4,1.8-.9,2.67-1.41.2-.12.3-.42.45-.63.11-.15.22-.3.35-.43.59-.57,1.26-1.07,1.75-1.71.32-.42.45-.98.92-1.34.14-.11.21-.45.15-.64-.19-.61.13-1.09.29-1.62.29-.94.49-1.9.03-2.86.58-.85.22-1.8.14-2.66-.09-1.05.15-2.19-.49-3.17-.05-.08.07-.25.06-.38-.03-.78-.09-1.52-.43-2.29-.28-.61-.57-1.34-.31-2.15.17-.53.15-1.24-.06-1.75-.33-.8-.43-1.64-.72-2.44-.27-.74-.49-1.6-1.03-2.11-.52-.5-.74-1.03-.99-1.63-.12-.29-.36-.6-.62-.75-1.24-.71-1.92-2.08-3.27-2.68-.71-.31-1.28-.95-2.15-.87-.06,0-.16,0-.19-.03-.6-.68-1.52-.57-2.25-.9-.58-.27-1.24-.39-1.84-.47-1.18-.17-2.39-.15-3.59-.19-.66-.02-1.33.33-2-.14-.14-.1-.53.17-.81.25-.27.08-.56.22-.83.21-.94-.06-1.83.11-2.67.53-.62.31-1.27.51-1.97.55-.17-.71-.44-1.38-.47-2.06-.03-.62.05-1.19-.63-1.53-.09-.04-.15-.22-.15-.33,0-.49-.3-.77-.66-1.05-.62-.49-1.25-.96-1.81-1.51-.38-.39-.73-.76-1.29-.87-.18-.04-.38-.15-.5-.29-.38-.43-.88-.58-1.41-.67-.93-.15-1.85-.63-2.82-.15-.05.02-.13,0-.19-.02-.9-.23-1.56.37-2.31.65-.39.15-.83.26-1.14.52-.33.28-.53.71-.81,1.07-.08.1-.25.12-.32.22-.39.57-.89,1.11-1.1,1.75-.3.92-.13,1.95-.42,2.9-.05.15-.01.34.04.49.24.64.23,1.37.75,1.92.4.43.77.91,1.03,1.43.46.88,1.37,1.1,2.13,1.47.62.3,1.4.26,2.05.52.76.31,1.47.28,2.23.13.18-.04.39.07.7.14-.39.56-.7.98-.99,1.41-.46.69-.97,1.35-.83,2.27.03.22-.01.48-.11.68-.28.6-.1,1.08.32,1.41-.38,1.4-.18,2.72.03,4.01.2,1.3.5,2.61,1.66,3.62-.2.31-.34.7-.62.95-.35.32-.44.62-.28,1.05.2.55.47,1.1.53,1.67.12,1.06.9,1.49,1.67,1.94.39.23.86.32,1.3.47.24.46.5.91.71,1.38.37.81.59,1.7,1.08,2.42.86,1.25,1.88,2.38,2.85,3.56.12.15.29.28.46.37.89.46,1.49,1.04,1.42,2.19-.04.81.13,1.63-.05,2.44-.03.15.02.33.04.49.1.92-.04,1.11-.88,1.38-.59.19-1.18.41-1.76.63-.52.19-1.02.45-1.56.56-.6.13-1.23.12-1.84.2-.29.04-.63.07-.84.23-.56.45-1.19.63-1.87.81-.98.26-1.94.61-2.9.96-.19.07-.38.26-.49.44-.27.48-.41,1.05-.76,1.46-.6.72-.81,1.56-1.02,2.42-.19.78-.17,1.67-.55,2.33-.56.97-.27,2.17-1.01,3.05-.05.06-.08.22-.04.28.26.45-.03.83-.12,1.23-.29,1.25-.6,2.5-.87,3.75-.15.67-.12,1.38-.49,2-.09.15-.05.38-.08.58-.03.25,0,.53-.1.75-.19.41-.28.8-.12,1.24.05.13.02.33-.04.46-.56,1.2-1,2.43-.89,3.8,0,.1.03.24-.02.29-.5.51-.51,1.1-.39,1.75.04.21-.11.44-.16.67-.05.26-.18.54-.12.77.17.61-.04,1.1-.36,1.58-.23.34-.4.69-.23,1.12.04.12.1.28.05.37-.68,1.23-.24,2.76-1.09,3.95-.13.19-.08.51-.11.77-.02.19.04.42-.05.55-.34.49-.3.98-.16,1.52.14.53.09,1-.36,1.43-1.17,1.11-2.19,2.35-3.22,3.58-.12.15-.22.34-.26.53-.25,1.13-1.08,2.04-1.14,3.24,0,.13-.21.25-.3.39-.17.25-.36.49-.47.76-.38.95-.76,1.9-1.09,2.87-.18.53-.2,1.1-.38,1.63-.56,1.62-1.16,3.22-1.75,4.84-.04.12-.06.26-.08.39-.2,1.47-.39,2.94-.59,4.4-.02.16-.07.34-.16.46-.45.6-.16,1.13.12,1.67.13.25.32.51.34.78.03.58.3,1,.66,1.41.49.56.97,1.14,1.64,1.5.43.24.87.44,1.01,1,.04.16.34.29.55.38,1.17.5,2.31,1.06,3.6,1.21.51.06,1.03.1,1.54.19.84.15,1.65.33,2.51.04.31-.11.75-.05,1.07.09.54.24,1.02.21,1.53,0,.21-.08.45-.1.68-.12.79-.07,1.58-.19,2.37-.18.76,0,1.46-.62,2.25-.17.09.05.29-.13.45-.16.22-.05.48-.13.68-.07.8.23,1.54.03,2.27-.27.7-.29,1.13-.12,1.43.55.44.99.99,1.25,1.97.81,1.04-.47,2.18-.75,3.04-1.57.12-.11.28-.18.43-.24.82-.34,1.68-.6,2.45-1.04.82-.47,1.49-.3,2.22.11.4.23.82.49,1.26.57,1.89.31,3.62,1.13,5.44,1.65,1.03.3,2.04.69,3.07,1,.85.25,1.72.42,2.57.67.66.19,1.3.6,1.97.63.5.03.87.18,1.27.38.83.41,1.73.54,2.64.67,1.31.19,2.58.17,3.89-.16,1.16-.29,2.39-.26,3.59-.4.78-.09,1.59-.14,2.34-.37,1.25-.38,2.54-.35,3.81-.48.92-.09,1.93.08,2.75-.59.12-.1.36-.06.55-.07.55-.01,1.11.03,1.66-.03.49-.05.95-.27,1.44-.33,1.08-.13,2.16-.18,3.24-.3,1.01-.11,2.02-.25,3.03-.42,1.07-.18,2.12-.48,3.19-.63,1.72-.25,3.44-.43,5.17-.62.58-.06,1.18-.09,1.76-.08.48.01.75-.18.86-.63.03-.13.05-.26.06-.39.12-.94-.07-1.93.55-2.78.06-.08.03-.27-.02-.38-.25-.58.04-1.06.24-1.56.06-.15.19-.28.23-.44.2-.86.29-1.76.58-2.59.44-1.29.37-2.65.8-3.96.34-1.05.38-2.21.73-3.3.31-.96.12-2.04.68-2.96.1-.16.07-.39.1-.59.22-1.32.43-2.64.65-3.96.2-1.13.42-2.26.61-3.39.29-1.75.57-3.51.83-5.26.06-.37,0-.76,0-1.22ZM121.12,139.35c-.59.29-1.18.55-1.76.86-.54.29-.94.84-1.66.78-.13-.01-.29.15-.41.25-.1.08-.17.27-.27.28-1.2.1-2.07.96-3.17,1.3-.81.25-1.57.67-2.34,1.03-.5.23-.98.5-1.51.78q-.03-.84.66-1.38c.09-.64.2-1.22.25-1.8.04-.45,0-.9.02-1.35.06-1.02.12-2.04.23-3.06.09-.88.42-1.77.34-2.62-.09-.91.33-1.8-.04-2.7-.08-.18,0-.45.06-.67.1-.48.23-.96.37-1.52.15.13.34.21.35.33.18,1.09.9,2.04.76,3.24-.06.48.22,1.02.39,1.52.16.45.43.7.98.83.85.2,1.64.65,2.46.98.54.22,1.08.51,1.64.6.87.14,1.56.64,2.31,1.01.37.18.68.36,1.12.22.21-.07.48.07.73.11.02.07.03.14.05.21-.52.26-1.03.52-1.56.78Z"/>
          <path class="cls-2" d="M84.64,132.89c.49-1.64.57-3.25,1.01-4.79.15-.54.12-1.15.27-1.73.36-1.39.64-2.81.94-4.22.07-.32.07-.65.11-.97.08-.58.17-1.16.27-1.74.24-1.36.5-2.73.75-4.09.17-.9.36-1.79.53-2.69.06-.29.14-.6.09-.88-.04-.21-.27-.49-.46-.53-.2-.04-.56.1-.65.27-.18.34-.25.75-.32,1.13-.12.64-.06,1.33-.47,1.9-.05.07-.08.19-.08.28-.01,1.24-.39,2.39-.74,3.56,0,.03-.03.07-.02.1.34.74-.21,1.3-.36,1.94-.17.73-.27,1.48-.42,2.21-.31,1.55-.66,3.09-.92,4.65-.14.8-.32,1.59-.2,2.44.08.58-.25,1.2-.39,1.81-.38,1.57.18,2.53,1.74,2.97.09.03.23-.01.29.04.88.87,2.2.88,3.14,1.62.17.14.42.18.63.26.51.2,1.11.23,1.46.75.05.07.16.15.25.15,1.2.08,2.06.97,3.18,1.26.91.23,1.82.51,2.72.79.24.08.47.23.66.41.46.42.97.67,1.59.73.31.03.66.15.9.35.71.59,1.56.81,2.41,1.08,1.85.58,3.69,1.15,5.57,1.74-.06.6.03,1.2-.47,1.67-.1.1-.13.31-.14.47-.06,1.67-.65,3.13-1.69,4.42-.06.07-.11.15-.2.28-1.79-.33-3.26-1.83-5.09-1.45-.46-.37-.8-.66-1.16-.94-.49-.38-.96-.75-1.28-1.34-.21-.38-.72-.6-1.29-1.03-.1-.38-.44-.82-1.06-1.15-.52-.29-.97-.81-1.28-1.32-.43-.72-1.18-.91-1.8-1.33-.19-.13-.4-.22-.58-.35-.83-.61-1.57-1.43-2.5-1.8-.9-.36-1.56-1.08-2.49-1.35-.56-.16-1.07-.48-1.61-.73-.06-.03-.14-.04-.18-.09-.68-.81-1.74-.91-2.61-1.35-.6-.31-1.41-.33-2.11-.31-1.52.06-3.03.23-4.55.35-.23.02-.45.03-.67.05,0-.43,0-.84,0-1.25,0-.12-.03-.28.03-.37.66-.9.63-1.99.82-3.01.17-.94.27-1.9.47-2.83.32-1.44.74-2.85,1.05-4.29.18-.85.24-1.74.36-2.61.03-.23.11-.44.15-.67.08-.49.22-.98.21-1.47,0-.52.06-.96.4-1.37.25-.31.41-.67.24-1.11-.06-.17,0-.38,0-.58.04-.48.08-.95.14-1.62.69-.7.48-1.88.78-2.9.08-.27.13-.56.18-.84.09-.48.14-.97.25-1.45.1-.47.23-.95.37-1.41.15-.5.47-.99.48-1.49.02-.94.3-1.78.65-2.62.08-.2.02-.46.06-.68.2-1.13.35-2.3,1.33-3.07.43-.34.96-.56,1.35-.77.77.34,1.4.67,2.07.9.96.34,1.93.72,2.93.88,1.61.26,3.14.93,4.81.88.03,0,.07,0,.1,0,1.75.7,3.54-.09,5.29.14.9-.46,1.95.01,2.86-.48.26-.14.65-.03.98-.06.36-.03.78,0,1.07-.16.8-.49,1.71-.42,2.56-.63.57-.15,1.16-.23,1.7-.45.27-.11.45-.45.72-.74.64.07,1.2-.1,1.34-.88,2.01.47,2.19.11,6.09,3.38.12.79.23,1.52.35,2.25.23,1.43.75,2.81.72,4.29,0,.36.13.72.19,1.08.09.55.26,1.11.24,1.67-.06,1.3.06,2.55.57,3.75-.21.98.36,1.84.45,2.75.08.8.02,1.63.16,2.45.19,1.06.19,2.16.79,3.12.12.19.08.51.06.76-.08,1.08.15,2.58.58,3.53-.09.18-.25.37-.27.59-.03.24-.03.64.11.72.64.37.93,1.13,1.76,1.33.7.17,1.31.71,1.97,1.08.37.21.75.4,1.13.58.64.31,1.42.48,1.89.96.87.89,2.22.87,3.01,1.8.67.07,1.12.51,1.63.88.48.34,1,.62,1.56.95-.82.54-1.75.63-2.64.78-1.14.19-2.31.17-3.44.35-1.11.18-2.14.08-3.15-.43-.49-.25-1.04-.38-1.57-.56-.3-.1-.62-.16-.9-.29-1.49-.68-2.96-1.39-4.45-2.06-.23-.1-.52-.04-.77-.1-1.05-.23-2.01-.64-2.55-1.64-.16-.3-.16-.7-.27-1.03-.44-1.38-.9-2.75-1.35-4.12-.3-.91-.61-1.81-.88-2.73-.08-.27-.06-.58-.06-.88,0-.72.18-1.45-.28-2.12-.2-.29-.09-.57.16-.8.17-.15.49-.3.49-.46.04-.99.77-1.48,1.36-2.09.14-.14.16-.42.21-.64.07-.32.13-.64.17-.96.03-.22.1-.47.03-.67-.23-.61-.47-1.22-.78-1.79-.21-.39-.55-.71-.84-1.06-.08-.1-.23-.19-.24-.3-.15-1.03-.9-1.65-1.53-2.36-.23-.25-.47-.4-.78-.25-.36.18-.41.5-.26.85.15.35.33.7.5,1.05.1.2.19.4.28.6.08.18.1.45.23.53.79.49,1.01,1.32,1.37,2.08.07.14.2.26.3.39.43.54.42.71.06,1.3-.27.44-.68.81-.62,1.42.02.16-.22.37-.38.53-.25.26-.55.48-.79.76-.39.46-.61.93-.15,1.52.29.37.31.82.24,1.32-.15,1.07-.08,2.2-.36,3.23-.38,1.39-.29,2.76-.23,4.14,0,.1.04.22,0,.29-.42.72-.27,1.5-.35,2.27-.09.83.13,1.64-.05,2.44-.12.54-.28,1.09-.32,1.64-.07.95.04,1.92-.11,2.85-.14.9.43,1.69.3,2.48-1.22-.29-2.43-.54-3.6-.89-.52-.16-.98-.52-1.46-.8-.23-.13-.42-.36-.66-.41-1.95-.42-3.66-1.43-5.46-2.22-.73-.32-1.55-.44-2.31-.73-.71-.27-1.39-.62-2.06-.95-.91-.45-1.8-.92-2.7-1.39-.15-.08-.3-.22-.44-.21-1.15.03-2.03-.59-2.97-1.12-.26-.15-.64-.1-.97-.14-.91-.1-1.62-.67-2.47-1.04Z"/>
          <path class="cls-2" d="M159.25,136.06c-.17.76-.36,1.49-.49,2.23-.36,2.07-.7,4.15-1.05,6.22-.02.1,0,.21-.04.29-.69,1.44-.74,3.05-1.18,4.55-.3,1.01-.53,2.05-.74,3.09-.2.99-.25,2.01-.49,2.98-.29,1.19-.31,2.47-.96,3.57-.1.17-.17.36-.22.54-.31,1.37-.62,2.74-.94,4.19-.52.06-.93.11-1.35.16-.52.06-1.04.12-1.56.2-.81.12-1.64.2-2.43.42-.7.2-1.38.24-2.1.23-.72,0-1.43.16-2.15.28-.29.05-.58.13-.86.23-.44.15-.86.25-1.34.07-.23-.08-.52-.03-.78.02-.67.13-1.32.4-2.03.28-.19-.03-.41,0-.59.08-1.28.52-2.6.54-3.95.43-.6-.05-1.22.22-1.83.33-.38.07-.77.13-1.15.18-.13.02-.27-.02-.4,0-1.03.14-2.06.3-3.09.42-.75.09-1.51.09-2.26.2-.66.1-1.31.33-1.97.45-.38.07-.78.02-1.16.08-.85.12-1.69.29-2.54.42-.19.03-.38-.03-.72-.06.17-.89.33-1.72.49-2.55.04-.19.19-.41.14-.57-.26-.86.2-1.57.44-2.33.08-.24.11-.52.08-.77-.1-.78-.09-1.49.19-2.3.24-.73.69-1.6.25-2.48-.06-.12,0-.31.02-.47.1-.67.22-1.33.33-2,.12-.72.15-1.46.36-2.14.18-.57.5-1.08.17-1.7-.05-.1.11-.29.15-.45.07-.29.17-.57.19-.87.08-.98.09-1.97.2-2.95.09-.81.3-1.6.43-2.41.19-1.23.36-2.47.54-3.73.45-.09.87-.2,1.29-.26.98-.14,1.97-.25,2.95-.38.83-.11,1.68-.38,2.5-.32.69.05,1.23-.37,1.91-.31.64.06,1.29-.07,1.94-.16.32-.04.63-.18.94-.27.15-.05.33-.17.46-.13,1.04.34,2.02-.15,3.02-.24.97-.08,1.94-.25,2.91-.35,1.61-.16,3.22-.28,4.83-.45.25-.03.5-.16.74-.27.37-.16.71-.28,1.14-.14.26.09.59.02.88-.03,1.36-.22,2.71-.4,4.1-.37.84.02,1.69-.21,2.53-.3,1.38-.15,2.74-.7,4.23-.36Z"/>
          <path class="cls-3" d="M79.63,154.89c.26.22.52.38.68.61.59.88,1.52,1.15,2.45,1.45.31.1.62.26.87.46.58.46,1.38.59,1.85,1.23.1.13.34.17.53.23.65.22,1.32.39,1.96.64,1.21.49,2.4,1.03,3.6,1.55.11.05.21.13.39.25-.86.48-1.39,1.1-1.48,2.03-.01.12-.09.26-.18.34-.65.61-.95,1.42-1.23,2.23-.25.73-.7,1.15-1.55,1.1-.52-.03-1.05.11-1.57.17-.16.02-.37.1-.49.03-.76-.44-1.4.03-2.08.21-.3.08-.63.07-.94.08-.82.03-1.64.05-2.46.06-.85.02-1.71.01-2.56.04-.3,0-.59.05-.89.1-.16.03-.37.18-.46.12-.64-.39-1.29-.04-1.93-.04-.26,0-.59.08-.78-.05-.75-.51-1.62-.5-2.46-.67-.38-.08-.73-.3-1.1-.46-.48-.2-.98-.39-1.45-.6-.2-.09-.4-.21-.54-.36-.26-.28-.47-.62-.73-.9-.33-.36-.78-.62-.81-1.19,0-.06-.04-.14-.09-.18-.6-.55-.71-1.24-.76-2.02-.04-.57-.02-1.04.14-1.61.35-1.23.48-2.51.73-3.77.07-.38.2-.76.33-1.13.26-.73.64-1.41.66-2.23,0-.47.3-.93.45-1.4.39-1.15.76-2.29,1.16-3.44.12-.34.25-.69.45-.99.24-.35.35-.68.3-1.11-.03-.2.09-.44.18-.64.52-1.08,1.14-2.11,1.63-3.22.32-.72.9-1.38,1.51-1.91.76-.67,1.29-1.54,2.18-2.12,1.23-.81,2.52-.87,3.88-.82.49.02.99-.07,1.46.04.64.15,1.25.4,1.85.67.53.24,1.14.38,1.49.91,1.2.2,1.97,1.15,2.99,1.68.76.4,1.51.81,2.23,1.27.5.32.93.73,1.41,1.09.9.68,1.8,1.35,2.69,2.04.62.48,1.18,1.03,1.76,1.54.71.63,1.08,1.65,2.1,1.96.22.07.45.33.53.56.23.65.74.99,1.24,1.38.36.28.66.64.98.97.95.95,1.87,1.93,2.85,2.85,1.03.97,2.12,1.88,3.17,2.82.2.18.34.4.53.59.26.25.53.49.79.73.22.19.45.37.66.57.16.16.26.47.44.52.97.31,1.29,1.29,1.98,1.89.2.17.19.57.27.82-.72.49-1.39.56-2.14.57-1.07.01-2.14.33-3.22.4-1.23.08-2.45.53-3.72.11-.38-.12-.9.2-1.48.34-.79-.22-1.75-.45-2.68-.77-.45-.16-.96-.41-1.23-.78-.61-.83-1.55-.93-2.38-1.3-.66-.3-1.28-.67-1.89-1.07-.47-.31-.87-.74-1.51-.6-.03,0-.09.03-.09.02-.47-.74-1.37-.62-2.01-1.03-.17-.11-.32-.3-.49-.32-1.04-.15-1.93-.69-2.78-1.21-.9-.55-2.01-.64-2.81-1.37-.13-.12-.36-.15-.55-.18-.42-.07-.84-.12-1.27-.18-.28-.04-.54-.03-.6.38Z"/>
          <path class="cls-2" d="M104.25,96.56c.96.38,1.88.75,2.81,1.1.92.35,1.85.67,2.85,1.03-.42.52-.85.69-1.44.87-.85.25-1.73.51-2.56.88-.29.13-.62.17-.94.21-.72.1-1.44.23-2.16.27-.8.05-1.58.23-2.4.17-1.03-.08-2.09.11-3.13.15-.32.01-.65-.06-.97-.11-.13-.02-.29-.14-.38-.1-.9.41-1.72-.13-2.58-.19-.49-.03-.97-.16-1.44-.27-.99-.22-1.99-.45-2.98-.69-.5-.12-.99-.28-1.58-.46,2.45-.83,4.7-1.86,7.21-2.03.12.22.24.53.44.77.34.38.87.27.87-.22,0-.73.47-1.46.04-2.22-.13-.23-.1-.58-.07-.87.17-1.28-.27-2.53-.22-3.8.01-.32-.08-.59.14-.92.31-.48.12-.93-.4-1.25-.31-.19-.65-.33-.96-.52-.19-.12-.34-.29-.5-.44-.23-.22-.45-.46-.67-.68-.11-.12-.26-.21-.34-.35-.65-1.1-1.55-2.05-2.02-3.26-.14-.36-.43-.67-.6-1.03-.18-.38-.3-.79-.46-1.18-.15-.4-.26-.82-.48-1.18-.41-.66-.65-.67-1.24-.15-.07.06-.13.15-.27.33-.42-.26-.99-.41-1.2-.77-.35-.61-.55-1.34-.67-2.05-.09-.52.44-.77,1.06-.67,1.04.17,1.57.89,1.99,1.74.22.44.4.93.73,1.26.5.51.84,1.09,1.11,1.72.18.4.45.64.85.78.53.18.91.08,1.01-.45.18-.92.73-1.73.61-2.76-.08-.68.24-1.4.38-2.1.09-.44.17-.89.25-1.36.39,0,.72,0,1.04,0,.16,0,.34.11.48.06.44-.13.86-.43,1.29-.43.45,0,.89.25,1.29-.17.05-.06.19-.07.28-.06,1.16.11,2.25-.35,3.37-.45,1.2-.1,2.32-.59,3.53-.6.16,0,.34-.03.48-.1,1.37-.7,2.91-.8,4.35-1.25.56-.18,1.11-.4,1.67-.57.97-.29,1.96-.52,2.92-.82.59-.19,1.16-.46,1.86-.74.11.64.24,1.21.31,1.79.05.39-.03.79.02,1.17.1.71.27,1.4.14,2.14-.07.4.04.87.2,1.25.29.73.21,1.42-.01,2.12-.03.09-.12.21-.09.28.34.96-.2,1.84-.26,2.76-.05.73-.02,1.53-.54,2.16-.06.07-.14.19-.12.26.13.72-.47,1.02-.81,1.47-.36.46-.67.97-1.06,1.41-.2.22-.52.39-.81.47-.64.17-1.21.34-1.71.87-.61.65-1.54.86-2.4,1.09-.59.15-1.18.36-1.82.22-.16-.04-.37.12-.56.16-.41.07-.83.21-1.23.16-1-.1-1.49.38-1.33,1.37.03.17-.01.36-.05.53-.26,1.12-.73,2.16-1.38,3.11-.06.08-.11.18-.12.27-.07.77-.33,1.47-.67,2.15-.11.23-.15.51-.19.77-.06.39.15.7.5.74.23.02.64-.16.72-.35.25-.6.8-1.08.74-1.81-.01-.17.15-.35.29-.63Z"/>
          <path class="cls-2" d="M91.43,79.93c-.58-1.3-1.32-2.39-2.35-3.27-.05-.04-.13-.07-.16-.12-.44-1-1.4-1.12-2.29-1.3-.39-.08-.61-.2-.55-.64.02-.16.02-.37-.06-.48-.91-1.19-.75-2.63-.9-3.98-.07-.63-.14-1.27.1-1.95.16-.45.07-1.05.15-1.6.29-1.91,1.41-3.2,2.85-4.3.5-.38.96-.79,1.45-1.19.08-.06.16-.13.25-.16,1.54-.46,2.59-1.79,4.1-2.29.84-.28,1.67-.61,2.52-.85,1.16-.32,2.35-.32,3.54-.21.39.04.79-.03,1.19-.03,1.01.01,2.03.04,3.04.07.22,0,.45.07.67.14.84.27,1.67.64,2.53.8.91.17,1.57.77,2.35,1.15.26.13.47.35.72.49,1.03.57,1.81,1.39,2.63,2.23.8.83,1.18,1.8,1.53,2.82.2.59.39,1.19.6,1.77.09.25.26.46.35.71.14.39.27.79.35,1.2.06.3-.1.51-.41.57-.48.1-.96.18-1.45.28-.1.02-.21.02-.29.06-1.43.8-3.03,1.1-4.58,1.53-.52.14-.92.68-1.55.44-.04-.02-.14.03-.18.08-.7.95-1.75.52-2.65.66-.31.05-.61.16-.92.25-.03,0-.05.05-.08.06-1.09.22-2.18.43-3.27.65-.9.18-1.82.29-2.68.58-.67.22-1.29.33-2,.27-1.06-.09-2.09.14-3.07.54-.2.08-.39.37-.44.6-.09.41-.07.86-.12,1.28-.04.35-.13.68-.18,1.03-.04.28-.11.58-.07.85.08.61,0,.81-.67,1.26Z"/>
          <path class="cls-3" d="M114.1,161.5c.34-.22.68-.44,1.01-.67.08-.05.2-.1.23-.18.42-.96,1.26-1.62,1.76-2.52.08-.14.09-.31.11-.47.02-.16-.03-.34,0-.49.1-.45.37-.91.31-1.32-.24-1.73-.55-3.45-.89-5.16-.05-.26-.39-.5-.66-.66-.62-.36-1.35-.57-1.9-1.01-1.12-.91-2.41-1.49-3.69-2.09-.29-.13-.55-.31-.84-.47.1-.18.12-.31.19-.34.84-.35,1.69-.66,2.53-1.02.87-.37,1.72-.8,2.59-1.16.86-.35,1.59-.91,2.38-1.39.63-.39,1.42-.53,2.13-.81.54-.22,1.06-.49,1.68-.78-.06.74.15,1.35-.14,2.06-.35.86-.53,1.83-.26,2.81.07.24-.04.57-.15.82-.19.43-.39.81-.29,1.32.05.25-.24.54-.24.82-.02.81-.2,1.59-.42,2.37-.06.21-.07.49.01.69.34.74,0,1.4-.13,2.11-.25,1.28-.74,2.53-.58,3.88.04.31-.1.65-.14.97-.04.26-.18.58-.08.76.29.52.09.93-.24,1.25-.26.24-.66.41-1.01.47-1.04.17-2.09.26-3.13.38-.04-.04-.08-.09-.12-.13Z"/>
          <path class="cls-2" d="M114.89,159.43c-.61.16-1.05.46-1.29,1.1-.22.57-.75.89-1.45,1.06-.07-.42-.23-.82-.17-1.19.24-1.42-.33-2.79-.2-4.21.03-.31-.27-.78-.56-.96-.45-.29-1.01-.44-1.54-.56-.55-.13-.95-.41-1.3-.83-.42-.5-.88-.98-1.35-1.44-.37-.36-.4-.75-.21-1.17.36-.78.74-1.54,1.12-2.31.32-.64.65-1.27.99-1.93,2.05,1.24,4.18,2.53,6.2,3.75.22.91.4,1.67.58,2.44.04.19.03.39.07.57.12.64.17,1.3.39,1.91.33.92.33,1.5-.42,2.14-.53.45-.72,1-.87,1.63Z"/>
          <path class="cls-2" d="M118.91,171.56c.05-.69.1-1.36.16-2.14.69-.14,1.32-.29,1.95-.4.61-.11,1.23-.18,1.85-.26.39-.05.79-.07,1.17-.13.35-.05.69-.17,1.03-.21.34-.04.69,0,1.04-.03,1.17-.12,2.33-.26,3.5-.38.22-.02.44-.03.67-.03.23,0,.47.08.69.05.51-.09,1.02-.35,1.52-.31.49.04.94.26,1.44,0,.14-.08.38.02.57.02.22,0,.46.02.66-.06.84-.35,1.71-.47,2.61-.43.36.02.79.09,1.08-.07,1.05-.58,2.25-.36,3.34-.69.33-.1.7-.04,1.05-.06.62-.03,1.25-.05,1.87-.11.72-.07,1.43-.19,2.15-.27,1.07-.12,2.12-.27,3.16-.66.87-.32,1.87-.28,2.92-.42.02.17.1.38.06.57-.06.25-.26.47-.3.72-.06.43-.34.53-.69.56-1.55.15-3.11.22-4.64.46-1.81.28-3.65.37-5.43.94-.86.28-1.79.33-2.7.43-1.54.17-3.08.29-4.61.48-.38.05-.73.3-1.15.48-.67-.31-1.42-.32-2.2-.13-1.02.25-2.04.49-3.07.73-.1.02-.2.05-.29.04-1.25-.2-2.39.36-3.58.55-.13.02-.26.08-.39.07-1.54-.08-2.98.47-4.47.69-.29.04-.58,0-.97,0Z"/>
          <path class="cls-2" d="M86.82,60.91c-1.12,0-2.24.1-3.35-.31-.63-.24-1.36-.2-1.98-.43-.95-.36-1.86-.84-2.55-1.63-.1-.12-.28-.17-.36-.22-.14-.72-.2-1.43-.42-2.07-.44-1.27.1-2.24.8-3.19.12-.16.32-.27.39-.44.29-.66.77-1,1.49-1.16.46-.1.88-.44,1.31-.67.37-.19.73-.21,1.14-.07.53.18,1.09.24,1.63.38.15.04.29.15.43.22.59.29,1.18.57,1.77.86.35.18.86.28,1.01.57.46.86,1.39,1.08,1.93,1.74.22.38.45.76.66,1.15.1.19.2.41.22.62.04.43.03.86.05,1.29.04,1.15-.01,1.21-1.3,1.48-.08-.22-.17-.46-.25-.7-.02-.06,0-.14-.04-.19-.46-.81-.62-1.81-1.15-2.53-.52-.7-1.1-1.5-2.03-1.83-.2-.07-.36-.28-.54-.43-.53-.42-1.1-.59-1.76-.31-.18.08-.37.18-.56.19-1.51.1-2.25,1.12-2.79,2.36-.35.81-.09,1.56.64,2.03.11.07.27.11.33.21.62,1.08,1.77,1.35,2.77,1.86.15.07.3.15.41.27.29.31.62.43,1.06.43.36,0,.72.19,1.09.29-.02.08-.04.16-.06.24Z"/>
          <path class="cls-2" d="M118.12,162.67c0,1.19-.11,2.26-.35,3.34-.13.59-.02,1.23-.02,1.88-.7-.27-1.47-.4-2.22-.79-.88-.47-1.94-.6-2.9-.94-.71-.25-1.38-.56-2.18-.55-.46,0-.96-.18-1.39-.38-.58-.27-1.11-.42-1.79-.31-.34.06-.77-.42-1.16-.66,2-.46,3.96-.81,5.94-1.01,1.99-.2,3.97-.38,6.07-.58Z"/>
          <path class="cls-2" d="M117.78,169.33c-.1.6-.2,1.23-.32,1.96-1.26-.38-2.42-.72-3.58-1.08-.88-.27-1.76-.53-2.64-.82-.78-.25-1.54-.55-2.32-.79-.65-.2-1.32-.34-1.97-.54-1.71-.53-3.41-1.1-5.13-1.6-.9-.26-1.84-.42-2.82-.64.2-.47.47-.61.88-.54.51.1.99.03,1.26-.31.68.1,1.25.18,1.83.27.1.01.21.01.28.07,1.03.74,2.27.81,3.43,1.13.22.06.42.16.63.24.21.08.45.26.64.22.57-.11,1.01.14,1.49.35.6.26,1.21.48,1.91.47.57,0,1.14.23,1.71.37.47.11.94.24,1.42.37,1.04.28,2.08.56,3.31.88Z"/>
          <path class="cls-3" d="M144.58,136.09c-2.84.33-5.55.64-8.22.96-.99-.65-1.97-1.29-2.95-1.92,0-.08.01-.16.02-.24,1.07-.2,1.81-1.12,2.98-1.12.61,0,1.23-.2,1.84-.26,1.01-.1,2.03-.17,3.05-.23.18-.01.38.05.55.13.18.08.32.27.5.31,1.25.31,1.64,1.36,2.22,2.39Z"/>
          <path class="cls-2" d="M89.86,168.48c.1-1.42.89-2.42,1.21-3.57.32-1.18,1.22-1.99,1.49-3.19,1.01.46,1.96.82,2.84,1.3.86.47,1.99.51,2.52,1.46-1.12.43-2.21.84-3.3,1.27-.18.07-.33.22-.48.35-.43.38-.76.94-1.48.78-.1-.02-.29.08-.34.17-.37.76-1.12.82-1.79,1.06-.18.07-.34.18-.68.37Z"/>
          <path class="cls-3" d="M110.14,156.33v1.99c-2.55-2.26-5.18-4.23-7.23-6.79.73.12,1.51.25,2.37.39.89,1.04,1.82,2.23,2.88,3.3.49.49,1.24.71,1.98,1.11Z"/>
          <path class="cls-2" d="M84,58.33c-1.01-.57-1.91-1.21-2.37-2.38.68-1.16,1.76-1.43,3.03-1.3,1.11.11,1.75.81,2.48,1.86-.78-.06-1.33-.07-1.86-.15-.89-.13-.96-.12-1.17.71-.09.37-.07.77-.11,1.26Z"/>
          <path class="cls-2" d="M85.59,57.66c1.27.1,1.72.41,2,1.42-.76.13-1.57-.44-2-1.42Z"/>
          <path d="M110.25,81.69c-.64-.93-1.23-1.75-1.76-2.61-.1-.15-.02-.56.12-.68.14-.12.59-.13.68-.01.62.82,1.8,1.2,1.89,2.45.02.23.3.43.42.66.23.44.13.78-.3.99-.91.45-1.84.86-2.77,1.29-.15.07-.31.13-.47.13-.38.02-.63-.18-.72-.55-.09-.36.02-.69.37-.83.4-.16.85-.38,1.23-.32.61.1.91-.25,1.32-.52Z"/>
          <path d="M106.15,87.38c-.34-.12-.56-.19-.77-.27-.15-.06-.31-.21-.44-.19-1.43.2-1.51-1.15-2.11-1.87-.12-.14,0-.59.13-.8.19-.29.56-.4.88-.19.35.23.76.47.98.81.37.59.8.66,1.42.51.5-.12,1.05-.15,1.55-.07.64.1.8.66.27,1.04-.6.44-1.31.72-1.91,1.04Z"/>
          <path d="M114.75,78.19c0,.16.06.37-.01.48-.25.37-.5.76-.83,1.02-.24.19-1.12-.26-1.33-.65-.2-.37-.34-.77-.04-1.2.12-.17.19-.4.23-.62.09-.46.39-.65.82-.71.44-.05.79.07.94.53.12.37.21.75.32,1.12-.03,0-.06.01-.08.02Z"/>
          <path d="M103.55,80.34c-.63,0-1.45-.72-1.54-1.34-.02-.13-.02-.27.01-.39.13-.45,1.55-1.18,1.99-1.04.57.18.74.48.67,1.13-.03.23,0,.46-.04.69-.09.58-.54.96-1.09.96Z"/>
        </g>
        <path class="cls-3" d="M98.74,82.31c0,.74,1.57,1.33,3.51,1.33s3.51-.6,3.51-1.33-1.57-1.33-3.51-1.33-3.51.6-3.51,1.33Z"/>
        <path class="cls-3" d="M112.15,81.81c0,.74,1.04,1.33,2.33,1.33s2.33-.6,2.33-1.33-1.04-1.33-2.33-1.33-2.33.6-2.33,1.33Z"/>
      </g>
    </g>
  </g>
</svg>