<?xml version="1.0" encoding="UTF-8"?>
<svg id="_レイヤー_2" data-name="レイヤー 2" xmlns="http://www.w3.org/2000/svg" viewBox="0 0 100 23.69">
  <defs>
    <style>
      .cls-1 {
        fill: #fff;
      }
    </style>
  </defs>
  <g id="footer_template">
    <g id="about">
      <g>
        <g id="logotype">
          <path class="cls-1" d="M38.95,7.22l.33,12.82s-2.31.25-4.31.25c0,0,.39-11.76.33-13.07,0,0-3.86-.33-5.14-.39v-3.53s10.48,0,13.96.11l-.33,3.75s-3.92.11-4.84.06Z"/>
          <path class="cls-1" d="M73.84,9.29c-.03.33.06.75.58,1.08,1.39.83,4.98.83,5.67,3.7.53,2.06-.39,4.78-3.86,5.37-3.64.58-6.17-1.72-6.76-4.14l2.53-1.58c.56,1.58,1.53,2.56,2.95,2.56.92,0,1.58-.67,1.64-1.33.03-.5-.22-1.22-1.31-1.5-3.23-.86-4.31-1.56-4.75-3.2-.64-2.34,1-4.64,4.06-4.95,2.92-.28,5.37,1.33,5.84,3.75l-2.7,1.28c-.22-1.17-1.36-2-2.34-2.03-.81-.06-1.47.36-1.56,1Z"/>
          <path class="cls-1" d="M100,18.18l-3.39,2.61s-5.17-5.98-5.7-6.81l-1.36.78s.19,3.78.31,5.45l-4.62-.06s.08-13.73.06-16.96l4.42-.11v6.09s4.7-3.73,7.12-5.78l2.36,4s-3.31,1.78-6.23,3.56c0,0,4.31,4.64,7.03,7.23Z"/>
          <g>
            <path class="cls-1" d="M54.96,4.89c-4.14,0-7.5,3.36-7.5,7.5s3.36,7.5,7.5,7.5,7.5-3.36,7.5-7.5-3.36-7.5-7.5-7.5ZM54.96,16.24c-2.12,0-3.85-1.72-3.85-3.85s1.72-3.85,3.85-3.85,3.85,1.72,3.85,3.85-1.72,3.85-3.85,3.85Z"/>
            <path class="cls-1" d="M63.55,5.55l-4.7-.06s0,0,0,.01c2.4,1.36,4.03,3.94,4.03,6.89,0,2.22-.92,4.23-2.4,5.66,1.57,1.27,4.4,1.8,6.87-.53-4.73-.33-4.84-4-3.81-11.98Z"/>
          </g>
        </g>
        <g id="logomark">
          <rect class="cls-1" x="0" y="9.15" width="7.89" height="2.63" rx="1.31" ry="1.31"/>
          <path class="cls-1" d="M13.19,15.9l-1.22,1.5s-.02.04-.02.06v4.92c0,.72.59,1.31,1.31,1.31h0c.72,0,1.31-.59,1.31-1.31v-4.92s0-.04-.02-.06l-1.22-1.5s-.11-.05-.14,0Z"/>
          <g>
            <path class="cls-1" d="M11.53,18.21c-2.98-.67-5.32-3.02-5.97-6.01h-2.68c.71,4.45,4.21,7.96,8.65,8.7v-2.68Z"/>
            <path class="cls-1" d="M13.26,0C8.06,0,3.74,3.78,2.89,8.73h2.69c.81-3.5,3.94-6.1,7.68-6.1,4.36,0,7.89,3.53,7.89,7.89,0,3.76-2.64,6.9-6.16,7.69v2.68c4.99-.83,8.79-5.16,8.79-10.38C23.78,4.71,19.07,0,13.26,0Z"/>
          </g>
        </g>
      </g>
    </g>
  </g>
</svg>