<?xml version="1.0" encoding="UTF-8"?>
<svg id="_レイヤー_2" data-name="レイヤー 2" xmlns="http://www.w3.org/2000/svg" viewBox="0 0 232.72 183.06">
  <defs>
    <style>
      .cls-1 {
        fill: #fff;
      }

      .cls-2 {
        fill: #f5bbb3;
      }

      .cls-3 {
        fill: #fdfaf3;
      }
    </style>
  </defs>
  <g id="img">
    <g id="top_graphic">
      <path d="M167.47,147.47c-.08-.32-.08-.67-.09-1-.07-1.61-.63-2.92-2.16-3.67-.19-.09-.41-.16-.54-.31-.52-.58-1.1-.96-1.89-.59-.64.3-1.38-.09-2.02.51-.57.54-1.29,1.06-2.34,1.01.09-.62.22-1.19.23-1.76.02-.62.16-1.43-.16-1.82-.53-.64-1.35-1.09-2.12-1.44-.63-.29-1.44-.19-2.06-.49-.96-.46-1.96-.32-2.94-.42-.2-.02-.43-.01-.59-.11-1.24-.76-2.57-.58-3.91-.43-.53.06-1.07.03-1.61.08-.41.04-.95,0-1.18.23-.68.69-1.5.93-2.38,1.21-1.14.36-2.22.94-3.31,1.45-.44.21-.82.59-1.27.73-.72.22-.91.64-.83,1.33.07.58.21,1.21.07,1.76-.22.85.03,1.58.26,2.34.06.2.19.39.19.59,0,1.53-.31,3.09.58,4.5.08.13.04.33.05.5.16,1.62.32,3.24.47,4.87.04.44.03.89.06,1.34.02.29,0,.62.12.86.63,1.16.2,2.47.55,3.67.17.59.09,1.25.23,1.84.26,1.05.82,1.42,1.91,1.47,1.12.05,2.25.17,3.37.22.84.04,1.69.04,2.53.02,1.05-.02,2.09-.13,3.14-.11,1.73.04,3.44-.05,5.1-.58.8-.26.96-.47.98-1.37,0-.29-.06-.67.09-.85.9-1.06,1.05-2.36,1.25-3.52,1.05-.67,2.19-1.14,2.97-1.96.98-1.03,1.96-1.88,3.37-2.19.25-.06.48-.33.66-.55.69-.89,1.33-1.83,2.05-2.7,1.15-1.38,1.61-2.89,1.16-4.66ZM161.61,149.64c-1.28.6-2.07,1.73-3.2,2.47-.14.09-.29.15-.5.27-.8-1.05.27-1.72.31-2.56.05-.99,1.2-1.18,1.74-1.85.69-.86,1.66-.19,2.51-.63.17,1.07-.11,1.97-.85,2.31Z"/>
      <path d="M232.5,138.1c-.37-.53-.87-.78-1.53-.68-.12.02-.24.11-.36.11-.32,0-.65.02-.95-.06-.77-.21-1.51-.51-2.28-.7-1.33-.32-2.6-.9-4.02-.84-.31.01-.63-.18-.96-.25-1.02-.22-2.03-.44-3.05-.64-1.18-.22-2.39-.35-3.55-.64-.72-.18-1.38-.39-1.99.14-.31-.16-.56-.36-.84-.4-1.36-.19-2.66-.5-3.98-.93-1.22-.4-2.49-1.34-3.95-.73-.06.02-.16-.05-.24-.07-1.09-.25-2.18-.52-3.28-.74-.44-.09-.97.04-1.34-.16-1.15-.63-2.62-.23-3.64-1.2-.07-.07-.25-.07-.37-.04-.99.23-1.91-.15-2.84-.36-.32-.07-.67-.15-.99-.1-.81.12-1.48-.1-2.14-.55-.26-.18-.64-.36-.93-.31-.93.16-1.74-.13-2.57-.44-.23-.09-.53-.18-.73-.1-.8.33-1.45-.01-2.13-.36-.33-.17-.73-.32-1.08-.29-1.65.14-3.13-1.24-4.84-.54-.03.01-.08-.02-.12-.03-1.19-.36-2.37-.87-3.59-1.02-1-.13-1.95-.27-2.9-.65-.8-.32-1.71-.38-2.57-.55-.32-.06-.65-.12-.98-.15-.77-.08-1.57-.06-2.3-.25-1.94-.52-3.82-1.21-5.85-1.36-.87-.07-1.72-.31-2.71-.49.14-1.78.33-3.54-.36-5.19.15-.64.22-1.28.26-1.93.03-.54-.08-1.11.08-1.61.21-.69.12-1.31.03-1.99-.17-1.26-.1-2.52.32-3.76.61.6,1.07,1.46,1.68,1.58,1.1.23,1.8,1.02,2.72,1.44.64.29,1.32.53,2.01.65,1.69.3,3.15,1.63,5.03,1.13.17-.05.39.12.59.18,1.8.54,3.38-.28,4.07-1.83.54-1.22,1.12-2.4,1.33-3.76.14-.88.29-1.72.14-2.61-.09-.54-.2-1.09-.17-1.63.13-2.28-.68-4.32-1.72-6.24-.85-1.57-.99-3.46-2.23-4.84-.02-.03-.04-.08-.03-.12.11-.87-.37-1.61-.52-2.41-.17-.88-.8-1.35-1.27-1.98-.47-.64-.07-1.64-.83-2.19-.07-.05-.15-.11-.17-.18-.22-.85-1.11-1.32-1.12-2.32-.02-2.31-1.05-4.31-2.23-6.22-.6-.96-1.32-1.82-1.2-3.09.03-.34-.26-.85-.56-1.05-.59-.4-.74-.97-.92-1.58-.3-1.04-.53-2.12-1-3.08-.54-1.11-1.31-2.12-1.96-3.18-.1-.16-.17-.39-.15-.58.11-.98-.43-1.83-.89-2.52-.7-1.06-.67-1.94-.25-3.04.43-1.12.18-2.43.86-3.52.09-.14-.05-.41-.04-.62.01-.76.2-1.37.81-1.98.82-.83,1.61-1.78,1.67-3.12.03-.8.1-1.67.94-2.22.22-.14.39-.65.31-.91-.48-1.57-.42-3.43-2.14-4.28.31-1.24.44-2.49.93-3.58.6-1.36-.08-2.24-.79-3.16-.19-.25-.5-.48-.8-.55-1.02-.23-2.06-.38-3.08-.57-.32-.06-.63-.15-.94-.23-.04-.68-.18-1.28-.09-1.84.3-1.77-.48-3.44-.44-5.18,0-.11-.11-.22-.16-.34-.42-1.05-.58-2.21-1.42-3.06-.07-.07-.05-.24-.08-.36-.14-.6-.29-1.2-.47-1.94.35-.06.8-.23,1.21-.18,1.38.19,2.45-.79,3.74-.91.11,0,.22-.13.3-.23,1.02-1.18,2.92-1.35,3.53-3.01.03-.09.24-.09.32-.18.28-.3.57-.6.8-.93.24-.34.38-.76.64-1.09.59-.76.77-1.57.52-2.5-.06-.22-.07-.54.05-.7.55-.75.3-1.53.16-2.31-.12-.62-.38-1.23-.38-1.85.02-1.72-.94-3-2.07-3.99-1.84-1.62-3.86-3.03-6.48-3.3-1.35-.14-2.67-.23-4,.06-.74.16-1.6.17-2.16.59-.77.57-1.62.87-2.44,1.29-.25.13-2.69,2.5-2.81,2.75-.02.04-.02.08-.04.12-.22.36-.36.82-.67,1.05-.76.56-.93,1.36-1.09,2.18-.06.29-.04.59-.07.88-.1,1.2-.21,2.4-.32,3.58-1.41-.32-2.79-.7-4.19-.94-1.4-.24-2.82-.35-4.23-.47-.27-.02-.56.16-.84.22-.52.1-1.07.3-1.57.24-.77-.09-1.4-.01-2,.51-.22.19-.6.3-.88.27-1.31-.13-2.51.34-3.74.61-.19.04-.39.19-.52.35-.4.52-.97.63-1.56.73-.33.06-.72.03-.98.2-.79.51-1.56.99-2.55.9-.11,0-.28.04-.35.13-.55.72-1.46.8-2.14,1.26-.78.53-1.57.93-2.49,1.17-.31.08-.54.48-.8.74-.43.44-.82.93-1.28,1.34-.93.83-2,1.48-2.44,2.79-.24.73-.69,1.43-1.52,1.78-.59.25-.8.79-.84,1.44-.04.53-.21,1.07-.41,1.57-.53,1.3-1.41,2.51-.88,4.05.05.16-.08.4-.17.59-.35.77-.3,1.46.35,2.08.43.42.5.91.33,1.5-.26.89-.44,1.8-.63,2.7-.06.28-.07.58-.06.87.03,1.15.14,2.31.11,3.46-.03,1.24-.26,2.49-.25,3.73,0,1.25-.4,2.61.72,3.68.18.17.16.55.22.84.16.73.37,1.46.46,2.2.14,1.16.53,2.17,1.14,3.2.73,1.25,1.09,2.71,2.47,3.5.14.08.25.23.35.36.75.96,1.48,1.92,2.24,2.87.5.62.97,1.23,1.87,1.41.72.14,1.42.45,2.09.78.96.49,1.89,1.03,2.9.29.81.43,1.5.71,2.44.52.75-.15,1.56.57,2.44.22.25-.1.55-.04.82-.05.09.58.19,1.07.24,1.56.05.48.07.97.1,1.4-.97.06-1.9-.06-2.71.21-1.41.47-2.81,1.08-4.08,1.84-.72.43-1.16,1.3-1.75,1.96-.27.3-.6.53-.9.8-.43.39-1.04.71-1.23,1.2-.21.54-.55.9-.89,1.32-.94,1.18-1.95,2.34-2.7,3.64-.91,1.57-2.47,2.62-3.23,4.29-.08.17-.36.22-.49.38-.28.35-.55.72-.78,1.1-.23.39-.4.81-.59,1.22-.64,1.42-2.36,2.18-2.46,3.94,0,.1-.13.21-.22.3-.96.92-1.81,1.94-2.92,2.73-.61.44-1.14.82-1.8.67-.44-.5-.93-.97-1.49-1.33-1.31-.86-2.7-1.6-4.3-1.65-.98-.03-1.58-.6-2.26-1.14-.84-.66-1.69-1.36-2.65-1.81-1.45-.67-2.98-1.14-4.49-1.67-.31-.11-.65-.13-.98-.18-.57-.08-1.17-.09-1.72-.25-1.64-.47-3.26-.85-4.86.12-.42.25-.85.49-1.28.72-.4.21-.79.46-1.22.6-2.27.75-4.5,1.61-6.55,2.85-.98.59-.98,1.61-.06,2.34.25.2.49.42.77.66-.23.4-.34.86-.61,1.01-.91.48-.9,1.33-1.05,2.14-.17.94.13,1.53,1.05,1.6.68.05.99.45,1.25.89.74,1.26.89,1.32,2.27,1.12.51-.08,1.1-.06,1.57.12.77.3,1.44.25,2.19-.07.72-.31,1.51-.48,2.26-.74.31-.11.69-.21.86-.45.82-1.12,2.2-1.15,3.24-1.82-.42.49-.94.85-1.35,1.31-.56.63-.78,1.42-.45,2.23.31.76,1.02.77,1.72.74,1.76-.07,3.52-.12,5.27-.2.28-.01.57-.11.84-.22.95-.39,1.48-.37,2.1.42.71.92,1.28,1.95,1.9,2.94.13.21.18.55.37.64,1.1.55,1.35,1.76,2.08,2.59.49.56.93,1.17,1.58,2.01-1.19-.38-2.17-.1-3-.79-.28-.23-.8-.19-1.21-.25-.33-.04-.72.06-.99-.08-1.02-.58-2.14-.7-3.27-.83-1.58-.19-3.17-.37-4.74-.66-1.48-.27-2.93-.68-4.4-1.03-.8-.19-1.57-.57-2.44-.22-.46.18-.88-.02-1.26-.37-.51-.49-1.1-.65-1.86-.48-.55.12-1.25.1-1.72-.16-.94-.52-1.86-.34-2.81-.22-.27.03-.54.1-.83.16-.1-2.25-.85-4.35-.53-6.55.01-.08-.02-.17-.05-.25-.48-.93-.6-1.96-.81-2.97-.29-1.4-.79-2.75-.56-4.23.05-.32-.05-.67-.1-1-.13-.99-.28-1.98-.41-2.98-.1-.81-.11-1.63-.27-2.42-.07-.33-.34-.75-.64-.88-.72-.31-1.49-.5-2.26-.69-.27-.07-.59.03-.87-.02-1.26-.23-2.51-.46-3.76-.74-.56-.12-1.11-.52-1.65-.49-1.21.08-2.3-.43-3.45-.57-1.42-.17-2.81-.54-4.21-.74-1.46-.2-2.76-1.37-4.35-.74-.12.05-.31-.09-.48-.12-2.04-.4-4.08-.81-6.12-1.2-1.06-.2-2.13-.38-3.19-.57-.74-.13-1.59-.08-2.19-.43-.77-.46-1.5-.43-2.3-.4-.4.01-.81-.05-1.2-.13-.57-.12-1.11-.37-1.68-.44-.77-.1-1.66.12-2.32-.18-1.75-.8-3.61-.85-5.44-1.15-.94-.15-1.86-.45-2.8-.65-1.33-.29-2.67-.71-4.01-.78-1.02-.05-2.05.4-2.96-.43-.11-.1-.4,0-.61-.01-.29-.02-.59-.02-.87-.08-1.19-.24-2.37-.53-3.56-.74-.49-.09-1.01-.02-1.52-.04-.51-.02-.79.25-.86.73-.05.37-.1.76-.04,1.12.26,1.78.58,3.56.85,5.34.18,1.16.45,2.32.43,3.48-.04,1.79.39,3.46.81,5.16.1.4.15.82.2,1.23.12.95.18,1.9.35,2.83.21,1.14.52,2.26.77,3.39.03.12,0,.25,0,.38.05.62.08,1.25.16,1.87.16,1.2.36,2.4.51,3.6.13,1.08.14,2.18.32,3.26.37,2.2.82,4.38,1.23,6.58.07.37.1.75.11,1.13.03,2.02.08,4.03.85,5.96.35.88.48.96,1.47,1,.79.03,1.67.02,2.34.37,1.31.69,2.62,1.04,4.08.93.36-.03.74.13,1.11.21,1.32.27,2.64.53,3.95.81.49.1.97.23,1.44.4,1.11.41,2.19.82,3.41.8.6,0,1.27.2,1.8.5,1.35.75,2.75.89,4.11.71.49.26.87.61,1.3.67,1.55.22,3.06.51,4.56.99,2.4.77,5.02.5,7.36,1.56.07.03.16.04.25.05,1.09.1,2.19.17,3.17.75.17.1.43.16.61.11,1.02-.3,1.9-.05,2.74.53.2.14.47.2.72.24,1.61.29,3.22.57,4.83.84.49.08.97.07,1.34.54.4.5,1.01.5,1.64.39.35-.07.78-.09,1.09.04,1.18.53,2.32.69,3.39-.12,2.34,1.57,2.34,1.55,4.47,1.51.53,0,.85-.14,1.13-.6.21-.34.55-.77.88-.81,1.03-.15,1.6-.68,1.71-1.38.79-.54,1.37-.93,1.94-1.33.13-.09.25-.24.39-.29,1.55-.44,2.76-1.45,3.84-2.54.74-.75,1.51-1.44,2.48-1.59,1.29-.21,2.2-1.05,3.15-1.71.98-.68,2.08-1.12,3.03-1.84.66-.5,1.19-.9,1.02-1.82-.05-.26.05-.54.07-.76-2.27-.83-4.8-.53-6.84-1.98-.1-.07-.25-.13-.36-.11-1.72.38-3.05-1.14-4.73-.97-.1,0-.21-.12-.31-.2-.78-.68-1.68-.73-2.61-.44-.5.16-.9.09-1.29-.23-.32-.27-.63-.56-.98-.79-.31-.2-.73-.5-1-.42-1,.3-1.76-.29-2.53-.44-.2-1.89-.39-3.66-.59-5.6,1.35.32,2.55.72,3.78.86,1.2.14,2.39.15,3.58.56,1.72.59,3.61.62,5.27,1.46.21.1.54.14.74.05.52-.24.96-.08,1.45.06,1.08.3,2.16.63,3.26.79,1.5.22,2.92,1.13,4.52.6.07-.02.18,0,.25.03,1.14.61,2.61.25,3.63,1.23.15.14.48.1.73.14.99.14,1.98.27,2.97.41,1.3,1.3,3.28.16,4.64,1.28.1.08.33,0,.5,0,.62.02,1.26-.05,1.87.07,1.51.3,3.01.68,4.52,1.02.16.04.33.05.5.08.48.1.95.2,1.43.3.52.11,1.03.27,1.56.34.95.13,1.92-.26,2.87.42.44.31,1.18.24,1.72.63.2.15.58.15.85.08.65-.16,1.23,0,1.85.16.84.23,1.73.31,2.59.48.43.09.85.25,1.27.38,1.06.34,2.12.69,3.18,1.02.11.03.25-.03.37-.06,1.06-.32,2.07.04,3,.41.72.29,1.32.75,2.11.24.11-.07.32-.04.47,0,1.78.52,3.75.31,5.38,1.44.27.18.75.15,1.11.08.5-.09.87-.06,1.24.34.54.57,1.16.57,1.84.17.22-.13.58-.22.81-.14,1.37.43,2.71.9,4.1,1.28,1.45.4,2.97.36,4.37.87,1.08.39,2.37,0,3.32.93.13.13.48.06.73.06,1.36-.03,2.68.1,3.99.53,1.03.33,2.07.65,3.12.85,2.21.41,4.45.73,6.67,1.09.33.05.67.14,1,.12,2.11-.12,3.96.91,5.95,1.34.45.1.9.34,1.33.31,1.1-.08,2.17-.21,3.11.58.13.11.41.06.62.05.87-.06,1.67.19,2.41.62.57.33,1.12.56,1.78.2.18-.1.48,0,.71.06,1.01.25,2.02.54,3.03.79.56.14,1.17.37,1.7.27.69-.13,1.26-.01,1.8.33.75.48,1.54.61,2.41.56.53-.03,1.16-.01,1.59.24.67.39,1.35.41,2.06.51.94.13,1.94.18,2.79.55.81.35,1.59.54,2.43.46.69-.06,1.32-.11,1.88.43.18.18.58.29.82.22.54-.17.93-.07,1.4.23.27.18.73.08,1.1.12.49.04.98.08,1.46.15,1.29.18,2.53,1.07,3.84.25,1.29,1.03,2.85,1.17,4.3,1.51,1.54.36,3.15.42,4.72.64.23.03.5.15.66.31.54.53,1.23.48,1.89.58.78.11,1.66.07,2.31.44.87.49,1.63.56,2.41.19.37.21.64.42.96.52.63.21,1.33-.05,1.69-.56.3-.43.29-.87,0-1.3ZM113.75,106.28c-.1.4-.17.81-.21,1.22-.07.78-.14,1.57-.16,2.36-.01.46.06.91.09,1.37.06.91.13,1.82.2,2.84-3.62-.96-6.97-1.83-10.63-2.13,1.73-1.09,3.29-2.06,4.85-3.05.14-.09.32-.19.37-.33.47-1.34,1.95-1.62,2.71-2.6.74-.96,2.05-1.07,2.82-2.23.25.96.16,1.75-.05,2.55ZM146.25,69.17c-.68-.2-1.34-.44-2.01-.58-.53-.11-1.08-.15-1.62-.15-.51,0-.83-.24-.88-.71-.08-.65-.08-1.31-.1-1.97-.02-.5,0-1-.04-1.49-.06-.6.16-.96.77-1.08.6-.12,1.2-.27,1.74-.39,1.25,1.98,2.4,3.88,2.16,6.37Z"/>
      <path d="M87.45,145.2c1.73-.75,2.69.37,3.58,1.44.33.4.68.68,1.11.96.77.5,1.45,1.13,2.16,1.71.06.05.14.12.16.2.19,1.24,1.1,2.15,1.56,3.27.22.53.47,1.04.76,1.68.92-.75,1.82-1.17,2.88-1.1.12,0,.28-.04.35-.12.84-1.04,2.1-.91,3.22-1.2.48-.13,1-.28,1.37-.58,1.08-.87,2.3-.85,3.47-.49,1.01.31,1.86.47,2.68-.34.14-.14.38-.25.57-.24.95.01,1.91.03,2.85.13.56.06,1.17.19,1.65.47,1.3.78,2.86.56,4.17,1.19.52.25,1.03.57,1.46.95.92.83,1.7,1.85,2.71,2.53.97.65,1.26,1.4,1.1,2.49,1.18.6,1.44,1.56,1.31,2.83-.12,1.16.08,2.35.12,3.52.03.79.03,1.59.02,2.38-.01.66-.31,1.28-.03,1.99.11.28-.22.96-.54,1.14-.88.51-1.85.86-2.87,1.31-.21,1-1.11,1.39-2,1.81-.48.23-.91.57-1.36.86-.24.16-.47.42-.73.46-.88.16-1.72.31-2.23,1.2-.1.18-.53.16-.81.25-.42.14-.9.21-1.25.46-1.09.76-2.13,1.59-3.21,2.38-.23.17-.51.32-.79.36-.66.09-1.2.31-1.56.93-.11.2-.37.37-.59.43-1.25.31-2.32.93-3.26,1.8-.21.2-.49.33-.75.47-.86.46-1.42.44-2.01-.33-.95-1.24-2.19-2.01-3.6-2.58-1.22-.49-2.27-1.13-3.03-2.32-.44-.68-1.38-1.04-2.11-1.52-.87-.58-1.72-1.18-2.62-1.7-1.6-.91-3.22-1.72-5.16-1.68-2.48.05-4.96-.14-7.41.39-.42.09-.9-.08-1.35-.13-.07.04-.17.06-.22.12-1.08,1.35-1.72,1.27-2.55-.25-.16-.3-.5-.58-.82-.69-1.03-.35-2.08-.62-3.13-.9-.15-.04-.35-.04-.5.01-.85.34-1.54.12-2.2-.49-.22-.2-.61-.24-.92-.32-.61-.14-1.22-.25-1.83-.37-.04,0-.09-.06-.11-.05-1.15.56-2.3-.11-3.44.01-.53.06-1.03.33-1.56.4-.61.08-1.25.15-1.84.05-.79-.13-1.43-.09-2.14.39-1.15.77-2.51,1.05-3.9,1.1-.88.03-1.35-.73-1-1.57.51-1.21.25-2.74-.61-3.6-.5-.5-.59-.93-.05-1.41,1.14-1.01.95-2.37.94-3.6-.02-1.76.63-3.07,2.21-3.84.94-.46,1.86-.98,2.5-1.85.14-.2.35-.44.56-.48,1.51-.29,2.29-1.63,3.46-2.4.88-.58,1.75-1.17,2.59-1.78.4-.29.69-.72,1.11-.98,1.07-.65,2.19-1.24,3.28-1.86.25-.14.52-.29.7-.51,1.08-1.28,2.56-2.06,3.94-2.91.89-.54,1.69-1.13,2.52-1.75.84-.64,1.97-1.24,3.17-.54.17.1.42.19.59.13,1.91-.64,3.7-.33,5.48.5.63.3,1.39.31,2.05.55.6.22,1.16.59,1.73.89,0,.1,0,.2,0,.3Z"/>
      <path d="M182.04,165.64c-.67-.6-1.25-.88-2.11-.9-1.01-.02-2-.55-3.03-.75-1.3-.25-2.49-.87-3.82-1.03-.73-.08-1.13-.71-1.38-1.35-.23-.57.13-1.72.7-2.04,1.04-.58,1.6-1.57,2.35-2.42.68-.78,1.52-1.41,2.3-2.1.19-.17.49-.24.6-.44.49-.85.94-1.7,2.11-1.69.07,0,.15-.08.2-.15.61-.81,1.18-1.66,1.83-2.43.67-.79,1.39-1.55,2.13-2.26.63-.6,1.34-1.12,1.99-1.7.69-.62,1.46-1.12,1.9-2.07.27-.58,1.16-.83,1.62-1.37.69-.81,1.47-1.06,2.45-.77.79.23,1.58.48,2.37.74.16.05.3.21.45.21,2.05-.04,3.91.68,5.81,1.34.9.31,1.9.33,2.82.6,1.4.41,2.77.92,4.16,1.38.12.04.25.11.36.08,1.42-.34,2.47.68,3.71.99.16.04.3.16.43.26,1.02.81,1.04,1.66.03,2.49-.32.26-.77.4-1.02.71-.5.6-.9,1.29-1.39,2.02.29.16.51.38.77.42,2.17.34,4.16,1.51,6.44,1.44.3,0,.73.16.88.4.38.59.91.65,1.52.67,1.31.02,2.43.63,3.52,1.25.6.34.7.83.37,1.4-.52.9-1.26,1.67-1.55,2.7-.03.11-.14.25-.24.28-.97.28-1.24,1.13-1.67,1.9-.32.57-.87,1.02-1.27,1.56-.97,1.3-1.93,2.6-3.06,3.79-.61.64-.93,1.54-1.43,2.3-.15.23-.45.36-.67.55-.18.16-.45.32-.5.52-.18.76-.74,1.09-1.43,1.34.17,1.04-.15,1.77-1.19,2.08-.23.07-.46.26-.59.45-.54.78-1.02,1.6-1.56,2.38-.52.74-1.13,1.43-1.66,2.17-.26.36-.52.75-.65,1.16-.29.91-.91,1.28-1.83.96-2.18-.74-4.38-1.37-6.65-1.81-1.59-.31-3.09-1.11-4.68-1.42-.97-.19-1.8-.8-2.95-.66-.95.12-1.99-.55-2.99-.88-.28-.09-.56-.34-.81-.3-1.59.22-2.95-.57-4.36-1-1.79-.55-3.5-1.39-5.22-2.16-.81-.36-1.04-1.48-.33-1.83.84-.42,1.03-1.26,1.6-1.84,1.17-1.19,2.26-2.46,3.37-3.7.42-.47.83-.95,1.28-1.47Z"/>
      <path class="cls-2" d="M142.06,70.3q1.47.65,2.69.4c.48.69,1.1,1.07,2.04,1.2.64.09,1.19.83,1.81,1.3-.65,1.16-.36,2.13,0,3.21.46,1.37,1.24,2.66,1.24,4.19,0,1.19.66,2.12,1.4,3.14-.29.77-.14,1.54.31,2.39.42.79.53,1.76.72,2.66.32,1.47,1.22,2.78,1.17,4.37-.02.74.63,1.2,1.25,1.14.64-.07,1.07-.58.98-1.36-.08-.69-.35-1.36-.48-2.05-.2-1.02-.37-2.06-.55-3.09-.05-.29-.09-.59-.2-.86-.46-1.15-.94-2.3-1.41-3.45-.03-.08-.12-.17-.11-.22.48-1.4-.83-2.42-.81-3.73,0-.31-.22-.63-.37-.93-.07-.15-.33-.29-.3-.38.37-1.37-1-2.36-.8-3.69.12-.81-.46-1.21-.98-1.54-.03-1.36-.28-2.57-.88-3.75-.46-.91-.63-1.96-.9-2.96-.15-.57-.25-1.16-.4-1.89.36-.57,1.02-.91,1.95-1.02,1.95-.23,3.88-.62,5.82-.95.16-.03.31-.11.61-.21.19.55.5,1.08.53,1.63.04.75.38,1.17.9,1.36.12.7.19,1.3.33,1.88.5,2.09,1.76,3.86,2.47,5.86.32.9.42,1.89,1.18,2.59.08.08.12.23.12.35,0,1.39.65,2.6,1.08,3.86.39,1.14.98,2.22,1.46,3.34.21.49.4.99.56,1.5.41,1.3.74,2.63,1.23,3.9.31.81.74,1.62,1.3,2.28.74.88.97,1.92,1.29,2.95.21.67.5,1.31.76,1.97.01.04.07.07.07.1,0,1.57,1.19,2.72,1.42,4.22.25,1.64.67,3.26.88,4.91.21,1.67-.04,3.3-.98,4.77-.09.14-.13.31-.19.46-.77.31-1.52.5-2.25-.04-1.33.28-2.39-.62-3.57-.93-1.44-.38-3.02-.8-4.17-1.96-.27-.27-.56-.51-.81-.8-.78-.93-1.51-1.91-2.31-2.82-.75-.86-1.26-.86-2.15-.13-.98.8-1.37,1.92-1.02,3.04.47,1.52-.06,2.9-.21,4.34-.02.21-.16.41-.15.61.1,1.46.17,2.93.35,4.38.07.55.07.93-.36,1.34-.27.26-.44.73-.46,1.12-.06,1.25-.02,2.5-.02,3.91-.63-.05-1.2.09-1.49-.14-1.42-1.14-3.13-1.33-4.8-1.66-1.98-.39-3.97-.69-5.95-1.04-.66-.12-1.32-.29-1.98-.39-1.53-.24-3.07-.45-4.61-.69-.32-.05-.69-.1-.95-.28-.63-.44-1.23-.67-2-.32-.21.09-.61-.02-.8-.18-1.03-.85-2.31-.65-3.47-.89-1.8-.37-3.6-.79-5.43-1.01-1.23-.15-2.3-.97-3.66-.63-.8.2-1.54-.95-1.19-1.76.31-.72.37-1.35-.06-2.04-.13-.21-.12-.58-.04-.84.45-1.56.39-3.14.17-4.72-.04-.32-.05-.7.09-.97.37-.75.3-1.46,0-2.2-.53-1.34-.62-2.67.05-4,.12-.24.12-.57.11-.86-.06-1.08-.13-2.16-.25-3.23-.06-.49-.19-.99-.37-1.45-.16-.41-.83-.56-1.04-.2-.34.56-.56,1.19-.76,1.81-.11.34,0,.74-.08,1.09-.3,1.21-.75,2.39-.93,3.61-.19,1.32-1.23,1.93-1.99,2.87-.95-.17-1.64.19-2.11,1.12-.21.42-.73.68-1.08,1.05-.36.39-.68.83-1.03,1.24-.19.21-.37.48-.61.59-.92.41-1.63,1.13-2.58,1.55-.86.38-1.52,1.28-2.2,2.02-.93,1-2.91,1.48-4.01.73-.59-.4-.95-1.13-1.41-1.71-.41-.52-.8-1.05-1.21-1.57-.08-.1-.25-.16-.26-.26-.18-1.14-1.3-1.64-1.75-2.57-.77-1.59-2-2.78-3.13-4.08-.52-.59-.46-.86.22-1.3.81-.52,1.65-1,2.47-1.52.28-.18.54-.4.77-.63.38-.39.73-.81,1.12-1.25.56.34,1.02.61,1.48.89.86.52,1.7,1.07,2.57,1.55.87.48,1.89.25,2.42-.57.5-.77,1.2-1.43,1.63-2.16.52-.9,1.38-1.54,1.76-2.47.32-.79.8-1.3,1.47-1.76.32-.22.5-.63.74-.96.71-.96,1.09-2.12,2.05-2.94.91-.78,1.91-1.63,2.4-2.67.44-.94,1.08-1.67,1.65-2.47.17-.23.43-.39.62-.61.28-.3.6-.58.8-.93.53-.96,1.03-1.92,1.95-2.59.28-.2.53-.59.58-.93.14-.89.61-1.44,1.42-1.75.12-.05.3-.07.34-.15.44-.97,1.5-1.27,2.13-2.02.82-.96,1.9-1.35,3.11-1.41.39-.02.87.11,1.18.33.78.56,1.48,1.21,2.21,1.83.13.11.26.27.4.29,1.36.21,2.72.74,4.11.31.64-.2,1.21-.23,1.84-.04.73.22,1.37.12,2.01-.4.43-.36,1.05-.5,1.59-.71.35-.14.77-.17,1.07-.38,1.18-.78,2.33-1.61,3.58-2.48Z"/>
      <path class="cls-1" d="M9.09,117.26c-.07-1.26-.12-2.5-.23-3.74-.05-.58-.23-1.14-.33-1.71-.13-.69-.23-1.39-.35-2.08-.27-1.52-.6-3.04-.81-4.57-.15-1.11-.11-2.26-.26-3.37-.06-.46-.38-.89-.61-1.32-.13-.25-.48-.47-.47-.7.03-1.07-.3-2.11-.2-3.2.07-.77-.08-1.56.14-2.33.04-.14-.02-.39-.13-.47-1.02-.76-.48-2.09-1.12-2.98-.02-.03-.05-.09-.04-.12.63-1.11-.08-2.2-.04-3.31.03-1.02-.03-2.02-.58-2.93-.12-.21-.23-.52-.17-.72.52-1.66-.4-3.09-.7-4.62-.05-.25-.15-.49-.16-.74-.02-.79,0-1.57,0-2.44.78-.27,1.51.15,2.21.45,1.03.45,2.04.65,3.17.56.69-.05,1.42.1,2.11.28.76.2,1.62.04,2.27.62,1.36-.23,2.49.52,3.72.86.44.12.92.05,1.38.11.74.1,1.48.19,2.2.38.61.16,1.17.49,1.84.27.18-.06.42.02.62.07,1.51.33,3.02.67,4.53,1,.16.04.36.12.49.06.68-.32,1.32,0,1.98.07.87.09,1.75.12,2.62.22.37.04.81.1,1.06.32.56.5,1.24.54,1.89.62,2.07.27,4.14.46,6.21.73.52.07,1.02.33,1.53.48.31.09.64.15.96.21.7.11,1.41.13,2.09.32,1.05.29,2.08.57,3.2.63,1.36.07,2.7.43,4.04.72,1.46.32,2.94.48,4.43.58.62.04,1.23.2,1.85.26,1,.1,1.55.7,1.62,1.63.07.86.21,1.71.24,2.58.04,1.02.2,2.02-.04,3.04,0,.04,0,.09.03.12.92,1.43.22,3.01.38,4.5.03.29-.03.67.13.85.66.72.56,1.52.4,2.36-.06.32,0,.68.08,1,.22.99.3,1.98.24,2.99-.07,1.27.39,2.44.66,3.66.22,1.01.04,2.11.67,3.04-.61,1.09.18,1.96.57,2.83.31.69.37,1.28.07,1.92-.34.73-.3,1.37.24,1.99.13.15.27.36.28.55.05,1.13.05,2.25.09,3.38.02.54-.09,1.19.17,1.59.85,1.31.49,2.67.37,4.03-.04.41-.16.82-.24,1.22-.54.1-1.09.21-1.81.34-.7-.48-1.57-.98-2.66-.82-.22.03-.47-.14-.71-.21-1.05-.3-2.07-.7-3.21-.57-.3.03-.62-.15-.93-.26-.67-.22-1.33-.49-2.01-.67-.81-.21-1.63-.35-2.45-.53-.21-.04-.41-.18-.61-.16-1.16.11-2.22-.44-3.3-.55-1.37-.14-2.61-.64-3.92-.91-.37-.08-.75-.1-1.11-.21-.34-.1-.67-.28-1-.42-.41-.18-.86-.58-1.24-.52-1.78.28-3.37-.4-5.01-.81-.56-.14-1.14-.19-1.7-.28-.94-.15-1.89-.25-2.83-.44-.99-.2-1.96-.47-2.94-.72-.36-.09-.72-.2-1.07-.32-.16-.05-.3-.16-.46-.21-.81-.22-1.63.33-2.51-.33-.57-.42-1.62-.18-2.45-.27-.36-.04-.77-.07-1.04-.27-.69-.51-1.46-.63-2.27-.63-1.08,0-2.14.07-3.09-.68-.34-.27-.98-.1-1.46-.24-1.2-.36-2.36-.87-3.66-.75-.19.02-.39-.14-.83-.31Z"/>
      <path class="cls-1" d="M110.58,30.68c.63.64,1.12,1.17,1.64,1.66.86.79,1.73,1.56,2.67,2.28.82.63,1.8.99,2.54,1.71.42.41.95.51,1.53.39.61-.13,1.1.07,1.64.43.65.43,1.43.66,2.15.97.15.06.37.04.47.14.97.92,2.36.74,3.47,1.3.24.12.58.04.87.06.33.03.77-.05.98.13.95.8,2.1.46,3.15.63.66.11,1.32.22,1.98.33,1.27.22,2.53.55,3.81.61.89.04,1.81-.28,2.8-.46.16,1.96.31,3.84.46,5.71.05.64.21,1.2.64,1.73.61.76.51,1.77.45,2.65-.09,1.49-.25,3-1.17,4.31-.57.82-.31,2.03.49,2.75.55.51,1.15.97,1.76,1.47-.89.95-1.7,1.98-3.11,2.2-.6.1-1.05.57-1.06,1.12-.03,1.13-.2,2.23-.31,3.35-.06.64.2,1.32.36,1.97.27,1.06.22,1.03-.74,1.67-.74.48-1.48.62-2.34.74-.79.11-1.55.54-2.39.6-.24.02-.53.15-.72.06-.62-.28-1.2-.26-1.84-.07-.6.18-1.06-.06-1.23-.74-.25-1-.82-1.92-.61-3.04.06-.29-.1-.68-.27-.95-.37-.61-.81-1.14-.7-1.95.03-.21-.44-.68-.72-.71-1.95-.17-3.86-.61-5.79-.89-.86-.12-1.75.2-2.6-.23-1.16-.59-2.43-.99-3.54-1.66-.73-.44-1.25-1.23-1.9-1.83-1.28-1.18-2.13-2.62-2.95-4.16-.65-1.23-1.14-2.41-1.22-3.78-.01-.24-.18-.47-.28-.7-.35-.84-.71-1.61-.46-2.63.17-.71-.21-1.55-.32-2.33-.18-1.29-.23-2.52.11-3.85.33-1.31-.22-2.79.39-4.14-.69-.99.42-2.03-.09-3.03.65-1.26,1.29-2.53,1.98-3.87Z"/>
      <path class="cls-1" d="M152.75,29.26c-.09,1.43-.18,2.75-.27,4.19-1.34-.33-2.61-.08-3.82-.55-.27-.11-.73-.06-.96.1-.73.53-1.5.99-1.66,2.06-.13.89-.59,1.74-.82,2.62-.25.96-.44,1.94-.62,2.92-.09.49-.04,1.02-.16,1.5-.25.95-.58,1.89-.91,2.93-.39-.46-.64-.83-.62-1.51.04-1.12-.1-2.25-.26-3.36-.11-.75-.64-1.22-1.3-1.1-.87.16-1.65-.08-2.48-.23-1.11-.19-2.25-.2-3.35-.42-2.08-.42-4.14-.94-6.21-1.42-.33-.07-.67-.22-.98-.17-1.24.19-2.29-.28-3.37-.77-.79-.36-1.66-.55-2.5-.75-.83-.2-1.58-.45-2.13-1.19-.26-.34-.72-.71-1.11-.73-1.24-.07-2.05-.76-2.8-1.63-.16-.19-.37-.35-.57-.5-1.28-.95-2.56-1.89-3.83-2.85-.55-.41-1.07-.56-1.74-.24-.58.28-1.24.4-2.04.41.33-.6.67-1.21,1-1.81.1-.18.28-.38.27-.56-.04-.69.38-1.1.72-1.63.87-1.39,1.97-2.44,3.41-3.2.46-.24.7-.86,1.15-1.13,1.1-.66,2.27-1.21,3.41-1.81.87.41,1.36-.33,1.98-.65,1.01-.51,1.99-1.05,3.14-1.23.56-.09,1.08-.44,1.62-.66,1.08-.44,2.14-.94,3.24-1.28.48-.15,1.07.01,1.61.08.88.12,1.75.33,2.49-.44.17-.17.55-.25.81-.2,1.89.34,3.85.31,5.65,1.12.26.12.58.12.87.12.61,0,1.12.17,1.61.58.5.42,1.14.66,1.7,1.01.73.46,1.46.94,2.17,1.42.17.12.34.27.44.45.31.58.86.87,1.34,1.27.97.84,1.94,1.69,2.91,2.52,1.19,1.02,1.93,2.48,2.07,4.18.12,1.54.21,1.53.89,2.53Z"/>
      <path class="cls-1" d="M146.8,4.58c.46-.16,1.33-.26,1.8-1.1.08-.15.44-.18.67-.19.83-.06,1.67-.09,2.51-.14.25-.02.54-.01.73-.14.74-.49,1.47-.34,2.29-.23,1.7.23,2.96,1.03,3.97,2.35.15.2.31.43.52.54.67.36.87.88.95,1.64.06.58.49,1.14.84,1.65.58.84.64,1.79.2,2.69-.48.97-.84,2-1.29,2.99-.13.28-.33.58-.59.74-1.13.72-2.29,1.4-3.44,2.09-.21.13-.45.34-.66.32-.99-.1-1.69.39-2.31.99-1.02-.13-1.96-.83-2.98-.01-1.01-.88-1.98-1.73-2.96-2.56-.25-.21-.56-.45-.86-.48-.8-.07-1.22-.6-1.73-1.11-.38-.38-.46-.75-.49-1.22-.04-.67-.05-1.37-.28-1.98-.27-.73-.09-1.3.28-1.89.13-.21.37-.47.33-.66-.24-1.03.61-1.46,1.06-2.12.44-.63.86-1.28,1.44-2.16Z"/>
      <path class="cls-1" d="M147.7,48.64c.5-1.13,1.06-1.38,1.87-.59,1.12,1.09,2.65,1.22,3.92,1.95.59.34,1.22.06,1.51-.49.27-.5.18-1.04-.36-1.45-.43-.33-.93-.56-1.42-.8-1.12-.53-2.39-.77-3.3-1.71-.31-.32-.62-.65-.92-.97.31-.7.78-.94,1.37-.81.66.14,1.31.33,1.93.57,1.05.41,2.08.89,3.12,1.34.42.18.81.28,1.07-.24.22-.43.04-.74-.57-1.04-.33-.16-.64-.37-.94-.57-.71-.48-1.39-1-2.12-1.45-.71-.43-1.49-.75-2.2-1.18-.76-.46-.78-.64-.5-1.86.45.07.97.05,1.38.25,1.55.74,3.1,1.49,4.58,2.37.96.57,1.81,1.32,2.64,2.06.27.24.41.73.44,1.12.07.71.02,1.43-.15,2.07-.33.61-.71,1.19-.99,1.82-.39.88-.73,1.79-1.04,2.7-.22.65.04,1.36-.33,2.03-.37.68-.62,1.42-.69,2.25-.05.6-.63,1.16-.97,1.74-.29.5-.62.99-.83,1.53-.28.7-.76,1.14-1.46,1.25-1.25.19-2.5.32-3.76.43-.97.08-1.17-.14-1.2-1.12-.04-1.58.43-2.2,1.97-2.47.54-.09,1.02-.23,1.21-.76.2-.56-.18-.92-.55-1.3-.74-.74-1.48-1.49-2.13-2.31-.25-.32-.26-.84-.4-1.34,1.76.37,3.07,1.32,4.48,2.08.15.08.28.2.43.27.6.24,1.17.04,1.4-.47.23-.53-.03-1.32-.62-1.46-.73-.17-1.35-.41-1.74-1.08-.04-.07-.14-.14-.21-.14-1.05.07-1.66-.88-2.59-1.13-.51-.13-.9-.71-1.34-1.07Z"/>
      <path class="cls-1" d="M70.83,99.18c-.4-.19-.73-.35-1.24-.6.67-.73,1.22-1.38,1.82-1.98,1.39-1.38,2.8-2.75,4.21-4.1.36-.35.83-.59,1.16-.96.19-.21.21-.58.3-.87-.3-.08-.66-.32-.87-.22-.79.37-1.64.73-2.25,1.32-1.39,1.34-2.71,2.73-4.41,3.72-.67.39-1.16,1.07-1.92,1.8.05-.78.19-1.23.61-1.59,1.43-1.22,2.86-2.45,4.29-3.68.6-.52,1.15-1.09,1.76-1.6.7-.58,1.55-.97,2.1-1.74.07-.1.3-.11.46-.11,1.17,0,2.28.12,3.4.58,1.85.77,3.79,1.35,5.71,1.94.81.25,1.55.46,2.16,1.14.38.43,1.07.6,1.63.85.67.29,1.37.53,2.2.85-1.28,1.84-2.89,2.99-4.46,4.21-1.69,1.31-3.77.87-5.58,1.59-.06-.09-.11-.18-.17-.27.27-.26.51-.6.83-.76.72-.36.82-1.04.95-1.69.04-.22-.05-.52-.19-.7-.66-.84-1.86-1.16-2.83-.7-1.77.84-3.51,1.73-5.01,3.02-.43.38-1.35.5-2.2.29.08-.22.13-.59.25-.61.83-.15,1.19-.89,1.78-1.34.95-.74,1.97-1.4,2.95-2.11.84-.61,1.67-1.24,2.47-1.9.15-.13.16-.44.25-.72-.62-.27-1.18-.52-1.74-.77-.41-.19-.8-.09-1,.27-.7,1.26-2.1,1.75-3.01,2.77-.27.3-.54.61-.8.92-.13.15-.21.36-.36.48-.8.67-1.64,1.3-2.42,2-.33.3-.51.75-.85,1.27Z"/>
      <path class="cls-1" d="M66.96,115.84c1.28.39,2.31.69,3.34,1.01.24.07.51.3.7.24.79-.25,1.45.21,2.17.32.78.12,1.58.18,2.36.35,1.3.28,2.57.65,3.87.94.53.12,1.08.14,1.63.2.98.12,1.22.24,1.7.78-.96.56-1.95,1.13-2.93,1.72-.13.08-.27.24-.31.39-.44,1.53-1.82,1.93-3.04,2.09-1.24.17-1.99.85-2.73,1.63-.49.51-.93.9-1.66,1.01-.75.11-1.42.42-1.89,1.12-.26.39-.75.61-1.26,1-.54-1.84-.78-3.55-.9-5.28-.04-.54-.15-1.07-.23-1.61-.04-.25-.16-.52-.09-.74.3-.91-.02-1.71-.29-2.56-.24-.74-.26-1.55-.43-2.62Z"/>
      <path class="cls-1" d="M158.02,38.4c.47.91-.23,1.36-.43,2.05-.59-.43-1.1-.85-1.65-1.2-.53-.34-1.1-.61-1.65-.92-.18-.1-.33-.32-.52-.35-1.6-.23-3.21-.44-4.82-.61-.21-.02-.45.19-.79.35-.05-.7-.23-1.32.28-1.92,1.64.46,3.28.93,4.92,1.37.4.11.83.12,1.23.23.4.11.88.19,1.17.45.66.61,1.39.73,2.26.54Z"/>
      <path class="cls-1" d="M147.07,55.46c-.3.59-.54,1.07-.84,1.68-.69-.21-1.41-.39-2.09-.65-.45-.17-.5-.62-.22-.93.59-.66.74-1.35.52-2.2-.06-.24.28-.59.57-1.13.31.88.42,1.51.74,2.01.31.47.84.79,1.32,1.22Z"/>
      <path class="cls-1" d="M146.7,44.56c.24.5.48,1.02.73,1.57-.64.59-1.69.68-1.68,1.86,0,.91.28,1.7.68,2.49-.44.3-.85.58-1.21.82-.05-.71-.24-1.45-.13-2.14.15-.91.11-1.88.78-2.71.42-.51.56-1.25.84-1.9Z"/>
      <path class="cls-1" d="M147.44,40.18c.22.7.38,1.21.56,1.76-.3.17-.58.33-.91.52-.39-.8.18-1.41.35-2.28Z"/>
      <path class="cls-1" d="M69,92.98c-.34-.41-.47-.56-.7-.84.54-.25.99-.47,1.51-.72.32.98-.62.89-.81,1.56Z"/>
      <path class="cls-1" d="M56.27,158.9c.54-.43.85-.69,1.19-.93.13-.09.36-.08.46-.19,1.27-1.47,3.32-1.65,4.77-2.87.72-.61,1.6-.96,2.29-1.7.68-.73,1.73-1.14,2.67-1.58.57-.27,1.12-.49,1.56-1,.37-.42.89-.78,1.42-.98.88-.34,1.65-.81,2.37-1.41,1-.83,2.03-1.64,3.11-2.36.54-.36,1.21-.52,1.94-.82,1.09,1.02,2.65.97,4.11,1.27.81.17,1.6.49,2.4.74.4.12.81.37,1.2.32.81-.09,1.35.27,1.9.78.51.48,1.13.84,1.67,1.29.25.21.42.51.65.75.43.45.8,1.08,1.33,1.29.8.32,1.2.81,1.5,1.55.27.65.67,1.25,1,1.88.29.55.05.92-.38,1.3-.57.48-1.1,1.02-1.59,1.57-.41.46-1.41,1.34-1.99,1.69-.73.43-1.41.89-1.65,1.81-.14.53-.54.86-1.11,1.1-1.28.53-2.53,1.14-3.34,2.37-.09.14-.24.33-.37.33-1.1.03-1.61.94-2.34,1.52-.61.49-1.17,1.05-2.08,1.07-.33,0-.66.45-.96.73-.2.19-.33.45-.61.84-.21-.86-.31-1.55-.55-2.19-.24-.62-.74-1.15-.9-1.77-.16-.59.03-1.32-.51-1.76-.68-.55-1.43-1.01-2.16-1.5-.13-.09-.39-.07-.45-.18-.84-1.4-2.37-1.29-3.66-1.7-.87-.28-1.75-.54-2.63-.78-.28-.08-.59-.1-.87-.07-.83.07-1.64.2-2.49-.07-.52-.16-1.14.01-1.71,0-1.24-.02-2.48-.05-3.72-.1-.4-.02-.79-.11-1.45-.21Z"/>
      <path class="cls-1" d="M122.23,158.54c-1.16.64-2.16,1.5-3.45,1.99-.98.37-1.83,1.05-2.08,1.87-1.62.73-3.04,1.36-4.44,2.02-.25.12-.47.36-.65.59-.58.77-1.26,1.28-2.27,1.45-.55.09-1.08.47-1.55.81-.71.51-1.33,1.14-2.04,1.65-.57.4-1.14.78-1.89.94-.68.14-1.26.73-2.01,1.2-1.46-.77-3.35-.96-4.9-2.02-.32-.22-.8-.24-1.21-.26-.96-.03-1.93.06-2.89,0-.64-.05-1.24-.53-1.94-.26-.94-.76-2.04-.09-3.06-.34-.39-.09-.98.22-1.35.51-.52.4-1.03.52-1.65.41-.72-.13-1.45-.26-2.34-.42.29-.18.48-.3.67-.42.32-.2.77-.33.92-.62.41-.77,1.11-1.07,1.81-1.47,1.08-.62,2.06-1.42,3.07-2.15.17-.12.31-.34.49-.36,1.17-.14,1.82-1.09,2.5-1.82.71-.76,1.66-1.11,2.36-1.81.41-.4.86-.76,1.26-1.17.52-.53.91-1.17,1.64-1.53.43-.21.67-.8.96-1.17.72-.35,1.42-.7,2.14-1.02.24-.11.57-.21.79-.13.91.36,1.65.19,2.24-.58.26-.34.55-.44.99-.36,1.31.23,2.6.14,3.85-.32,1.07-.4,2.04-.55,3.1.18,1.01.69,2.15.12,3.17-.17,1.03-.29,1.56-.33,2.21.41.41.47.85.8,1.47.9.16.03.4.07.46.18.57,1.05,1.64,1.35,2.63,1.77.58.24.93.69.98,1.55Z"/>
      <path class="cls-1" d="M124.2,166.01c.05.69.1,1.29.16,1.99-.18.08-.4.26-.62.26-.87-.02-1.44.35-1.77,1.16-.07.17-.26.34-.44.4-.85.29-1.62.65-2.22,1.37-.27.33-.8.44-1.21.65-.26.13-.59.2-.77.41-.74.83-1.82,1.18-2.64,1.83-.98.79-2.22.97-3.18,1.71-.16.12-.4.15-.56.28-1.12.88-2.21,1.79-3.33,2.66-.69.53-1.39,1.05-2.12,1.52-.67.43-1.6.23-1.94-.53-.33-.71-.78-1.06-1.52-1.12-.16-.01-.39-.02-.48-.13-1.05-1.31-2.79-1.89-3.62-3.45-.18-.35-.54-.65-.89-.85-1.27-.72-2.59-1.38-3.87-2.1-.37-.21-.66-.54-.99-.81.06-.08.11-.16.17-.25.2.09.43.15.6.29.48.38.99.63,1.63.55.12-.02.26-.03.38.01,2.75.97,5.61,1.77,7.08,4.7.24.47.66.87,1.06,1.24.5.46,1.23.53,1.6.1.94-1.12,2.37-1.36,3.52-2.1.48-.31.97-.61,1.43-.95.63-.46,1.33-.8,1.96-1.28.97-.75,2.22-1.11,3.34-1.67.32-.16.63-.39.89-.63.45-.42.84-.92,1.32-1.29.23-.17.63-.16.96-.17.59-.02,1.13-.19,1.38-.73.33-.73.98-1.06,1.63-1.3.97-.37,1.84-.83,2.56-1.58.1-.1.29-.11.52-.19Z"/>
      <path class="cls-1" d="M104.97,175.44c-.45-.83-.86-1.58-1.27-2.33,1.15-1.12,2.66-1.71,3.93-2.61,1.11-.8,2.51-.95,3.49-1.92.23-.22.74-.12,1.06-.29,1.66-.88,3.39-1.67,4.91-2.75.66-.47,1.35-.84,2.02-1.27,1.39-.88,3.07-1.39,4.01-2.91.22-.36.68-.57,1.06-.88.97.93.07,1.7.03,2.48-.96.4-1.89.77-2.8,1.17-.18.08-.36.23-.48.4-.71.98-1.8,1.48-2.7,2.22-.23.19-.54.31-.69.54-.74,1.08-2.01,1.32-3.02,1.96-1.23.78-2.49,1.5-3.73,2.27-1.58.98-2.9,2.34-4.72,2.96-.36.12-.62.53-1.1.97Z"/>
      <path class="cls-1" d="M54.04,168.44c-.85-.48-.37-1.18-.39-1.85,1.12-.53,2.22-.81,3.42-.39.77.27,1.51.28,2.33.03.68-.21,1.47-.03,2.21-.02.42,0,.88.15,1.24.02,1.54-.53,2.7.54,4.06.7-.01.1-.02.19-.03.29-.63,0-1.26.01-1.89,0-.2,0-.41-.17-.6-.16-.87.05-1.81.38-2.58.14-.87-.27-1.68-.45-2.57-.38-.21.02-.43.02-.62.08-1.54.5-3.07,1.02-4.59,1.53Z"/>
      <path class="cls-1" d="M53.64,163.97c-.15-.87-.27-1.49-.4-2.24,1.13.13,2.09.14,2.99.39.76.2,1.47.35,2.22.11,1.24-.4,2.48.08,3.72-.03.49-.05.99-.02,1.49-.01,1.04.02,2.05.12,3.02.84-1.06.62-1.95.85-3,.22-.41-.25-1.06-.22-1.57-.14-.46.08-.79.05-1.14-.26-.56-.5-1.21-.45-1.9-.27-.69.18-1.39.36-2.09.4-.7.04-1.3.24-1.9.59-.37.21-.84.26-1.42.42Z"/>
      <path class="cls-1" d="M73.8,169.81c-.78-.47-1.47-.88-2.11-1.27.55-.36,1.06-.69,1.62-1.06.79.54.99,1.23.49,2.33Z"/>
      <path class="cls-1" d="M68.49,163.73c1.48.24,2.89.63,3.84,2.06-.65.34-1.1.22-1.49-.25-.65-.76-1.27-1.55-2.35-1.81Z"/>
      <path class="cls-1" d="M70.59,167.51c.2.03.39.05.59.08,0,.07-.02.14-.03.22-.2-.03-.39-.06-.59-.09,0-.07.02-.14.03-.2Z"/>
      <path class="cls-3" d="M208.21,155.11c.64.28,1.49.89,2.4.98,1.21.12,2.18.76,3.28,1.07.56.16,1.15.23,1.73.33.85.14,1.72.13,2.45.78.31.27.86.27,1.31.39.31.09.62.17,1.13.31-.34.27-.51.41-.69.54-.59.39-1.12.74-1.38,1.53-.2.61-.92,1.04-1.39,1.57-.38.44-.73.9-1.08,1.36-.85,1.13-1.56,2.4-2.57,3.35-.69.65-1.16,1.36-1.68,2.11-1.11,1.59-2.07,3.3-3.82,4.4-.74.47-1.22,1.46-1.63,2.3-.59,1.24-1.57,2.16-2.42,3.17-.15.18-.61.13-.93.12-.52-.03-1.05-.12-1.79-.21-.39-.44-1.01-.85-1.93-.67-.32.06-.7-.23-1.06-.33-1.4-.42-2.8-.89-4.22-1.22-.71-.16-1.49-.02-2.24-.06-.26-.01-.58-.08-.77-.25-.88-.79-1.9-1.11-3.05-1.31-1.05-.18-2.05-.7-3.07-1.06-.46-.16-.92-.35-1.4-.44-1.5-.27-3.01-.5-4.72-.77,1.02-1.15,1.45-2.37,2.42-3.3.96-.91,1.67-2.1,2.48-3.17.72-.95,1.71-1.18,2.73-.6,1.21.7,2.48,1.19,3.9,1.26.33.02.66.13.98.25,1.11.43,1.11.44,2.19.05.56.67,1.36.67,2.17.68.68.01,1.21-.28,1.31-.94.09-.61.49-.95.83-1.36.62-.77,1.22-1.57,1.88-2.3.53-.58,1.15-1.09,1.74-1.62.09-.08.21-.15.32-.19.91-.37.97-1.5,1.67-1.97.71-.48,1.24-.96,1.75-1.69.8-1.14,1.3-2.66,3.17-3.1Z"/>
      <path class="cls-1" d="M174.76,161.36c.61-.67,1.06-1.16,1.5-1.66.63-.71,1.31-1.37,1.99-2.02.82-.8,1.6-1.62,2.46-2.39.6-.54.94-1.38,1.78-1.69.42-1.12,1.49-1.58,2.3-2.33.75-.69,1.24-1.66,1.86-2.5.12-.16.3-.28.45-.43.5-.5.98-1.01,1.48-1.51.38-.38.77-.76,1.16-1.12.12-.11.33-.15.42-.28.83-1.25,1.82-1.43,3.06-.58.28.19.72.14,1.09.22.28.06.67.04.8.21.6.77,1.47.78,2.29.86.81.08,1.59.18,2.2.8.14.14.42.3.56.25,1.06-.41,1.81.39,2.7.62.89.24,1.79.55,2.7.62,1.43.12,2.64,1.02,4.18.94-.06.27-.04.53-.15.62-.97.73-1.86,1.52-2.41,2.65-.09.19-.4.28-.61.42-.42.28-1.01.46-1.23.85-.55.99-1.39,1.67-2.17,2.42-.82.79-1.18,2.01-2.36,2.49-.24.1-.37.45-.56.67-.54.63-.99,1.34-1.81,1.72-.32.15-.6.59-.72.96-.38,1.14-.97,2.02-2.18,2.4-.27.08-.54.26-.74.46-.7.7-1.48.71-2.3.31-1.44-.69-2.92-1.25-4.53-1.4-.12-.01-.26-.11-.37-.08-1.66.48-3.02-.92-4.62-.73-1.12-.82-2.43-.69-3.71-.84-1.43-.18-2.84-.57-4.52-.93Z"/>
      <path class="cls-3" d="M154,162.65c-.87.45-1.7.33-2.52.25-.37-.04-.75-.21-1.11-.16-1.55.2-3.07.09-4.61-.19-.72-.13-1.51.06-2.25.2-.75.15-1.41.05-1.93-.29-.18-.95-.36-1.8-.51-2.65-.04-.24,0-.49,0-.74-.02-.41-.05-.82-.09-1.23-.02-.16-.13-.32-.14-.48-.08-1.2-.13-2.39-.21-3.59-.02-.29-.03-.61-.16-.85-.41-.79-.72-1.5-.41-2.48.19-.6-.14-1.38-.29-2.08-.27-1.26-.57-2.51-.88-3.86.41.18.86.34,1.28.57.67.36,1.29.81,2.11.7.15-.02.33.07.48.15,1.69.82,3.46.85,5.27.62.24-.03.52-.02.75.05,1.11.35,2.17-.01,3.23-.22.27-.05.59-.21.75-.43.66-.9,1.82-.98,2.63-1.64.1-.08.31-.01.65-.01-.17,1.26-.33,2.45-.49,3.64-.06.42-.19.84-.14,1.24.09.7.04,1.26-.48,1.85-.27.3-.22.94-.2,1.42.01.32.23.63.31.83-1.04,3.08-1.73,6.08-1.05,9.37Z"/>
      <path class="cls-1" d="M140.16,142.02c1.17-.59,2.24-1.26,3.39-1.67,1.09-.39,2.26-.56,3.42-.73,1.07-.16,2.17-.18,3.25-.27.2-.02.43-.17.6-.11,1.45.48,2.89.99,4.45,1.53-1.18.76-2.22,1.47-3.29,2.12-.77.47-1.58.65-2.52.6-1.76-.11-3.54-.19-5.29-.03-1.65.15-2.95-.25-3.99-1.44Z"/>
      <path class="cls-1" d="M158.39,147.1c.09-.93.17-1.7,1.08-2.26,1.64-1.01,3.28-1.45,5.15-.66.22.62.49,1.23.66,1.86.36,1.35-.11,2.59-.74,3.72-.64,1.17-1.41,2.27-2.19,3.35-.28.39-.74.65-1.12.97-.19.16-.42.29-.56.49-.75,1.14-1.95,1.65-3.04,2.35-.56-1.17.07-1.84.83-2.48.48-.4.92-.84,1.38-1.26.25-.23.45-.61.73-.68,1.25-.28,1.82-1.39,2.7-2.11,1.41-1.16,1.69-2.8.69-3.99-.22-.26-.69-.59-.91-.51-.75.26-1.53-.3-2.3.29-.6.46-1.45.57-2.37.9Z"/>
      <path d="M123.71,58.13c-1-.53-2.02.03-3.07.24-.12.02-.26.06-.37.03-.99-.29-2-.51-2.94-.91-.67-.29-1.25-.79-1.82-1.26-.34-.28-.45-.71-.18-1.14.26-.4.65-.61,1.08-.43,1.2.5,2.54.24,3.76.84.6.3,1.46.08,2.2.04,1.07-.06,2.14-.2,3.22-.24.44-.01.66.36.61.8-.08.69-1.68,2.03-2.49,2.03Z"/>
      <path d="M120.41,48.7c.44.27.87.52,1.28.79.27.18.65.36.74.62.14.39.22.92.06,1.29-.22.53-.83.55-1.33.41-1.24-.35-2.36-.96-3.36-1.75-.49-.39-.53-.98-.22-1.6.39-.78.78-1.56,1.18-2.33.06-.11.12-.26.22-.3.86-.4,1.41-1.15,2.04-1.8.39-.4,1.05-.12,1.16.44.05.28.1.69-.05.85-.75.77-.79,1.83-1.22,2.72-.1.22-.29.4-.5.68Z"/>
      <path d="M128.51,47.23c-.87,0-1.8-.82-1.81-1.6-.01-.6,1.14-1.64,1.83-1.66.89-.02,1.66.85,1.63,1.85-.02.72-.83,1.42-1.65,1.42Z"/>
      <path d="M114.39,44.96c0,.85-.79,1.71-1.53,1.68-.87-.04-1.5-.63-1.47-1.38.04-1.17.65-1.92,1.54-1.89,1.05.03,1.47.49,1.47,1.6Z"/>
      <path class="cls-2" d="M116.24,48.85c-.03.83-1.55,1.47-3.41,1.41s-3.34-.78-3.32-1.61c.03-.83,1.55-1.47,3.41-1.41,1.86.06,3.34.78,3.32,1.61Z"/>
      <path class="cls-2" d="M131.47,49.84c-.03.83-1.55,1.47-3.41,1.41-1.86-.06-3.34-.78-3.32-1.61.03-.83,1.55-1.47,3.41-1.41,1.86.06,3.34.78,3.32,1.61Z"/>
    </g>
  </g>
</svg>