<?xml version="1.0" encoding="UTF-8"?>
<svg id="_レイヤー_2" data-name="レイヤー 2" xmlns="http://www.w3.org/2000/svg" viewBox="0 0 15 15">
  <defs>
    <style>
      .cls-1 {
        fill: #fdfaf3;
      }
    </style>
  </defs>
  <g id="footer_template">
    <g id="_01" data-name="01">
      <path class="cls-1" d="M4.39.05c-.8.04-1.34.17-1.82.35-.49.19-.91.45-1.33.87-.42.42-.67.84-.86,1.33-.18.48-.31,1.02-.35,1.82C0,5.22,0,5.48,0,7.51c0,2.04.01,2.29.05,3.09.04.8.17,1.34.35,1.82.19.49.45.91.87,1.33.42.42.84.67,1.33.86.48.18,1.02.31,1.82.35.8.03,1.06.04,3.09.04,2.04,0,2.29-.01,3.09-.05s1.34-.17,1.82-.35c.49-.19.91-.45,1.33-.87s.67-.84.86-1.33c.18-.48.31-1.02.35-1.82.03-.8.04-1.06.04-3.09,0-2.04-.01-2.29-.05-3.09s-.17-1.34-.35-1.82c-.19-.49-.45-.91-.87-1.33s-.84-.67-1.33-.86c-.48-.18-1.02-.31-1.82-.35S9.52,0,7.49,0c-2.04,0-2.29.01-3.09.05M4.48,13.61c-.73-.03-1.13-.15-1.39-.26-.35-.14-.6-.3-.86-.56s-.43-.51-.56-.86c-.1-.26-.23-.66-.26-1.39-.04-.79-.05-1.03-.05-3.03,0-2,0-2.24.04-3.03.03-.73.15-1.13.26-1.39.14-.35.3-.6.56-.86s.51-.43.86-.56c.26-.1.66-.23,1.39-.26.79-.04,1.03-.05,3.03-.05,2,0,2.24,0,3.03.04.73.03,1.13.15,1.39.26.35.14.6.3.86.56s.43.51.56.86c.1.26.23.66.26,1.39.04.79.05,1.03.05,3.03,0,2,0,2.24-.04,3.03-.03.73-.15,1.13-.26,1.39-.14.35-.3.6-.56.86s-.51.43-.86.56c-.26.1-.66.23-1.39.26-.79.04-1.03.05-3.03.05s-2.24,0-3.03-.04M10.6,3.49c0,.5.4.9.9.9s.9-.4.9-.9c0-.5-.4-.9-.9-.9,0,0,0,0,0,0-.5,0-.9.4-.9.9M3.65,7.51c0,2.13,1.73,3.85,3.86,3.84s3.85-1.73,3.84-3.86-1.73-3.85-3.86-3.84c-2.13,0-3.85,1.73-3.84,3.86M5,7.5c0-1.38,1.11-2.5,2.5-2.51,1.38,0,2.5,1.11,2.51,2.5,0,1.38-1.11,2.5-2.5,2.51-1.38,0-2.5-1.11-2.51-2.49h0"/>
    </g>
  </g>
</svg>