<?xml version="1.0" encoding="UTF-8"?>
<svg id="_レイヤー_2" data-name="レイヤー 2" xmlns="http://www.w3.org/2000/svg" viewBox="0 0 149.14 149.14">
  <defs>
    <style>
      .cls-1 {
        fill: #4e8cb9;
      }

      .cls-2 {
        fill: #9ed2b7;
      }

      .cls-3 {
        fill: #fff;
      }

      .cls-4 {
        fill: #f5bbb3;
      }
    </style>
  </defs>
  <g id="img">
    <g id="about_logo_img">
      <g>
        <circle class="cls-3" cx="74.57" cy="74.57" r="74.57"/>
        <g>
          <path class="cls-1" d="M76.2,38.7c-18.32,0-33.18,14.85-33.18,33.18s14.85,33.18,33.18,33.18,33.18-14.85,33.18-33.18-14.85-33.18-33.18-33.18ZM76.2,96.76c-13.74,0-24.88-11.14-24.88-24.88s11.14-24.88,24.88-24.88,24.88,11.14,24.88,24.88-11.14,24.88-24.88,24.88Z"/>
          <rect class="cls-4" x="34.38" y="67.56" width="24.88" height="8.29" rx="4.15" ry="4.15"/>
          <path class="cls-2" d="M75.97,88.84l-3.85,4.74c-.04.05-.07.12-.07.18v15.52c0,2.28,1.86,4.14,4.14,4.14h0c2.28,0,4.14-1.86,4.14-4.14v-15.52c0-.07-.02-.13-.07-.18l-3.85-4.74c-.12-.14-.34-.14-.45,0Z"/>
        </g>
      </g>
    </g>
  </g>
</svg>