<?xml version="1.0" encoding="UTF-8"?>
<svg id="_レイヤー_2" data-name="レイヤー 2" xmlns="http://www.w3.org/2000/svg" viewBox="0 0 45 49.35">
  <defs>
    <style>
      .cls-1 {
        fill: #4e8cb9;
      }

      .cls-2 {
        fill: #9ed2b7;
      }

      .cls-3 {
        fill: #f5bbb3;
      }
    </style>
  </defs>
  <g id="header_template">
    <g id="detail_logo">
      <g>
        <path class="cls-1" d="M24.34,0c-7.8,0-14.12,6.32-14.12,14.12s6.32,14.12,14.12,14.12,14.12-6.32,14.12-14.12S32.14,0,24.34,0ZM24.34,24.71c-5.85,0-10.59-4.74-10.59-10.59S18.49,3.53,24.34,3.53s10.59,4.74,10.59,10.59-4.74,10.59-10.59,10.59Z"/>
        <rect class="cls-3" x="6.54" y="12.28" width="10.59" height="3.53" rx="1.7" ry="1.7"/>
        <path class="cls-2" d="M24.24,21.33l-1.64,2.02s-.03.05-.03.08v6.6c0,.97.79,1.76,1.76,1.76h0c.97,0,1.76-.79,1.76-1.76v-6.6s0-.06-.03-.08l-1.64-2.02c-.05-.06-.14-.06-.19,0Z"/>
      </g>
      <g>
        <path class="cls-1" d="M5.66,40.61l.21,8.26s-1.49.16-2.78.16c0,0,.25-7.58.21-8.42,0,0-2.49-.21-3.31-.25v-2.27s6.75,0,8.99.07l-.22,2.42s-2.53.07-3.12.04Z"/>
        <path class="cls-2" d="M28.14,41.94c-.02.21.04.48.38.7.9.54,3.21.54,3.65,2.38.34,1.33-.25,3.08-2.49,3.46-2.35.38-3.98-1.11-4.35-2.67l1.63-1.02c.36,1.02.99,1.65,1.9,1.65.59,0,1.02-.43,1.06-.86.02-.32-.14-.79-.84-.97-2.08-.56-2.78-1-3.06-2.06-.41-1.5.64-2.99,2.62-3.19,1.88-.18,3.46.86,3.76,2.42l-1.74.82c-.14-.75-.88-1.29-1.5-1.31-.52-.04-.95.23-1,.64Z"/>
        <path class="cls-1" d="M45,47.67l-2.19,1.68s-3.33-3.85-3.67-4.39l-.88.5s.13,2.44.2,3.51l-2.97-.04s.05-8.85.04-10.93l2.85-.07v3.92s3.03-2.4,4.59-3.73l1.52,2.58s-2.13,1.15-4.01,2.29c0,0,2.78,2.99,4.53,4.66Z"/>
        <g>
          <path class="cls-3" d="M18.83,40.68l-.09-1.18,3.03.04c-.66,5.14-.59,7.51,2.45,7.72-.84.86-2.85,1.79-4.69.11"/>
          <path class="cls-1" d="M15.72,39.11c-2.67,0-4.83,2.16-4.83,4.83s2.16,4.83,4.83,4.83,4.83-2.16,4.83-4.83-2.16-4.83-4.83-4.83ZM15.72,46.42c-1.37,0-2.48-1.11-2.48-2.48s1.11-2.48,2.48-2.48,2.48,1.11,2.48,2.48-1.11,2.48-2.48,2.48Z"/>
        </g>
      </g>
    </g>
  </g>
</svg>