<?xml version="1.0" encoding="UTF-8"?>
<svg id="_レイヤー_2" data-name="レイヤー 2" xmlns="http://www.w3.org/2000/svg" viewBox="0 0 150 150">
  <defs>
    <style>
      .cls-1 {
        fill: #fff;
      }

      .cls-2 {
        fill: none;
        stroke: #000;
        stroke-width: .36px;
      }
    </style>
  </defs>
  <g id="img">
    <g id="about_logo_img">
      <g>
        <circle class="cls-1" cx="75" cy="75" r="75"/>
        <g>
          <polygon class="cls-2" points="49.58 79.57 49.58 64.85 35.19 64.85 35.19 54.63 49.58 54.63 49.58 39.9 60.52 39.9 60.52 54.63 74.9 54.63 74.9 64.85 60.52 64.85 60.52 79.57 49.58 79.57"/>
          <path class="cls-2" d="M85.3,90.25c-1.16.22-2.55.34-4.16.34-8.65,0-15.97-2.85-21.96-8.54-6.07-5.73-9.1-12.84-9.1-21.35s3.03-15.63,9.1-21.4c5.99-5.69,13.31-8.54,21.96-8.54s15.97,2.85,21.96,8.54c6.07,5.77,9.1,12.9,9.1,21.4,0,2.73-.43,5.55-1.29,8.45-.86,2.9-2.04,5.5-3.54,7.78l-27.36,42.3h-13.48l18.76-28.98ZM81.14,80.25c5.39,0,10-1.91,13.82-5.73,3.82-3.82,5.73-8.43,5.73-13.82s-1.91-10.05-5.73-13.87c-3.82-3.82-8.43-5.73-13.82-5.73s-10,1.91-13.82,5.73-5.73,8.45-5.73,13.87,1.91,10,5.73,13.82c3.82,3.82,8.43,5.73,13.82,5.73Z"/>
        </g>
      </g>
    </g>
  </g>
</svg>