<?xml version="1.0" encoding="UTF-8"?>
<svg id="_レイヤー_2" data-name="レイヤー 2" xmlns="http://www.w3.org/2000/svg" viewBox="0 0 455 107.8">
  <defs>
    <style>
      .cls-1 {
        fill: #4e8cb9;
      }

      .cls-2 {
        fill: #9ed2b7;
      }

      .cls-3 {
        fill: #f5bbb3;
      }
    </style>
  </defs>
  <g id="img">
    <g id="top_first_view_logo">
      <g>
        <path class="cls-1" d="M177.2,32.86l1.52,58.32s-10.5,1.14-19.61,1.14c0,0,1.77-53.51,1.52-59.46,0,0-17.58-1.52-23.4-1.77V15.02s47.69,0,63.5.5l-1.52,17.08s-17.83.51-22.01.25Z"/>
        <path class="cls-2" d="M335.97,42.27c-.13,1.52.25,3.42,2.66,4.93,6.33,3.79,22.64,3.79,25.81,16.82,2.4,9.36-1.77,21.76-17.58,24.42-16.57,2.66-28.08-7.84-30.74-18.85l11.51-7.21c2.53,7.21,6.96,11.64,13.41,11.64,4.18,0,7.21-3.04,7.46-6.07.13-2.28-1.01-5.57-5.94-6.83-14.67-3.92-19.61-7.08-21.63-14.55-2.91-10.63,4.55-21.13,18.47-22.52,13.28-1.27,24.41,6.07,26.56,17.08l-12.27,5.82c-1.01-5.31-6.2-9.11-10.63-9.23-3.67-.25-6.7,1.65-7.08,4.55Z"/>
        <path class="cls-1" d="M455,82.7l-15.43,11.89s-23.53-27.2-25.93-30.99l-6.2,3.54s.89,17.2,1.39,24.79l-21-.25s.38-62.49.25-77.16l20.11-.51v27.7s21.38-16.95,32.38-26.31l10.75,18.22s-15.05,8.1-28.34,16.19c0,0,19.61,21.13,32,32.89Z"/>
        <g>
          <path class="cls-3" d="M267.76,24.99l21.38.25c-4.68,36.3-4.17,53,17.33,54.52-13.5,12.7-29.32,6.7-34.79-1.36-6.27-9.22-3.92-53.42-3.92-53.42Z"/>
          <path class="cls-1" d="M250.09,22.27c-18.84,0-34.11,15.27-34.11,34.11s15.27,34.11,34.11,34.11,34.11-15.27,34.11-34.11-15.27-34.11-34.11-34.11ZM250.09,73.88c-9.66,0-17.5-7.83-17.5-17.5s7.83-17.5,17.5-17.5,17.5,7.83,17.5,17.5-7.83,17.5-17.5,17.5Z"/>
        </g>
      </g>
      <g>
        <path class="cls-1" d="M60.33,0C33.9,0,12.47,21.43,12.47,47.87s21.43,47.87,47.87,47.87,47.87-21.43,47.87-47.87S86.77,0,60.33,0ZM60.33,83.77c-19.83,0-35.9-16.07-35.9-35.9S40.51,11.97,60.33,11.97s35.9,16.07,35.9,35.9-16.07,35.9-35.9,35.9Z"/>
        <rect class="cls-3" x="0" y="41.64" width="35.9" height="11.97" rx="5.98" ry="5.98"/>
        <path class="cls-2" d="M60,72.33l-5.56,6.83c-.06.08-.09.17-.09.27v22.39c0,3.29,2.69,5.98,5.98,5.98h0c3.29,0,5.98-2.69,5.98-5.98v-22.39c0-.1-.03-.19-.09-.27l-5.56-6.83c-.17-.21-.48-.21-.65,0Z"/>
      </g>
    </g>
  </g>
</svg>