<?xml version="1.0" encoding="UTF-8"?>
<svg id="_レイヤー_2" data-name="レイヤー 2" xmlns="http://www.w3.org/2000/svg" viewBox="0 0 202.55 202.86">
  <defs>
    <style>
      .cls-1 {
        fill: #fdfaf3;
      }
    </style>
  </defs>
  <g id="img">
    <g id="top_cording_back">
      <path class="cls-1" d="M201.39,101.46c0,1.2.3,2.41.26,3.59s-1.19,2.33-1.28,3.51c-.08,1.19.23,2.4.11,3.58-.13,1.19-1.87,2.14-2.04,3.31-.17,1.18,1.49,2.63,1.28,3.79s-.54,2.33-.79,3.49-1.51,2.08-1.8,3.23,1.42,2.86,1.08,4-.16,2.5-.53,3.63-2.98,1.49-3.4,2.61-1.12,2.09-1.58,3.19c-.46,1.1.75,2.92.25,4s-.22,2.59-.75,3.66-1.92,1.74-2.5,2.78c-.57,1.05-.94,2.25-1.55,3.27s-.7,2.43-1.34,3.43c-.64,1-3.32.67-4,1.64s-.54,2.54-1.26,3.49c-.71.95-1.92,1.53-2.67,2.45-.75.93-1.18,2.12-1.96,3.02s-.69,2.62-1.5,3.49-1.67,1.77-2.51,2.61c-.84.84-3.04.31-3.91,1.12s-.21,3.37-1.11,4.15c-.9.78-2.07,1.34-2.99,2.09s-3.84-1.07-4.8-.35-1.54,1.85-2.52,2.53-2.22.87-3.23,1.52c-1,.64-1.5,2.02-2.52,2.63-1.02.61-2.31.69-3.35,1.26s-1.91,1.4-2.97,1.94-1.96,1.35-3.05,1.84-2.72-.4-3.82.06-1.97,1.33-3.08,1.74-1.98,1.41-3.11,1.79-2.42.09-3.56.43c-1.14.33-1.79,2.37-2.95,2.66s-2.45-.03-3.61.22-2.43-.15-3.6.06c-1.17.21-2.13,1.62-3.32,1.79s-2.43-.3-3.62-.18-2.21,2.23-3.4,2.31-2.46-.78-3.66-.74-2.4-.43-3.6-.43-2.34-1.46-3.53-1.5-2.38.5-3.57.42c-1.19-.08-2.42.44-3.6.31-1.19-.13-2.35-.43-3.52-.6s-2.56.82-3.73.61-1.92-2.58-3.08-2.83-2.53.46-3.69.17-2.41-.24-3.55-.58c-1.14-.34-1.67-2.57-2.79-2.94-1.13-.38-2.89,1.11-4.01.7-1.12-.42-2.79.48-3.88.02s-2.32-.8-3.4-1.3-1.72-2.03-2.78-2.57-.99-3.22-2.03-3.79c-1.05-.57-3.59,1.49-4.61.88s-1.71-1.84-2.71-2.48-2.15-1.13-3.12-1.81-.79-2.98-1.74-3.69-1.62-1.73-2.54-2.48-3.36.32-4.26-.46-1.45-1.98-2.33-2.79c-.87-.81-2.09-1.3-2.93-2.14s-2.34-1.12-3.15-1.99.99-4.09.21-4.99-2.84-.69-3.59-1.62-.07-2.93-.78-3.88c-.71-.95-1.46-1.81-2.14-2.79-.68-.98-1.07-2.07-1.71-3.08s-1.48-1.81-2.09-2.83-2.71-1.16-3.28-2.21-.21-2.56-.75-3.62-.09-2.54-.58-3.62-1.53-1.87-1.99-2.97c-.46-1.1-1.43-1.95-1.85-3.07-.42-1.11-.63-2.27-1.01-3.4s-2.07-1.84-2.41-2.98c-.33-1.14-1.73-2.03-2.03-3.19s2.36-3,2.11-4.17c-.25-1.16-2.72-1.88-2.94-3.05s1.18-2.6,1.01-3.78-.31-2.33-.43-3.52.76-2.41.68-3.6-2.34-2.24-2.38-3.43c-.04-1.19,2.26-2.39,2.26-3.59s-2.44-2.41-2.4-3.59-.59-2.46-.51-3.64,2.26-2.21,2.39-3.39c.13-1.19,1.02-2.24,1.19-3.41s-.46-2.45-.25-3.62-.24-2.47.01-3.63-1.34-2.8-1.04-3.95c.29-1.16,1.98-1.98,2.31-3.12s2.9-1.57,3.28-2.69-1.79-3.14-1.37-4.26c.42-1.12,1.94-1.81,2.4-2.91.46-1.1.49-2.39.98-3.47.5-1.08-.19-2.77.34-3.83s3.17-1.05,3.74-2.09,1.45-1.88,2.06-2.9,1.99-1.5,2.64-2.5-1.34-3.74-.66-4.72,2.54-1.13,3.25-2.08.25-2.84,1-3.77,1.78-1.67,2.56-2.57,2.92-.58,3.73-1.45,1.52-1.81,2.36-2.65c.84-.84-.13-3.59.74-4.4.87-.81,3.24,0,4.14-.78s2.69-.45,3.61-1.19.58-3.09,1.54-3.81c.95-.71,3.23.45,4.21-.23s.36-3.72,1.36-4.36,3.28.79,4.3.18,2-1.19,3.05-1.76,2.27-.67,3.34-1.2,1.18-2.99,2.26-3.48,1.79-1.92,2.89-2.38,2.42-.46,3.53-.88c1.11-.42,2.25-.87,3.38-1.24,1.13-.37,2.15-1.23,3.29-1.56s2.21-1.14,3.37-1.44,3.17,3.07,4.33,2.82,2.12-1.29,3.29-1.5c1.17-.21,2.43.44,3.61.27s2.17-1.44,3.36-1.57S92.69.09,93.88,0s2.51,2.11,3.71,2.07c1.19-.04,2.36-1.47,3.55-1.47s2.34,2.14,3.53,2.18,2.51-2.27,3.69-2.18,2.2,2.27,3.38,2.4c1.19.13,2.39-.12,3.57.05,1.18.17,2.59-1.07,3.76-.86,1.17.21,1.87,2.77,3.03,3.02,1.17.25,2.85-1.74,4-1.44s2.52-.03,3.66.3,2.27.88,3.4,1.26c1.13.38,2.24.95,3.35,1.37s2.04,1.41,3.13,1.87,2.61.06,3.69.55,2.39.66,3.46,1.19,2.21,1.06,3.25,1.63c1.05.57,1.78,1.81,2.8,2.42s.8,3.23,1.8,3.88,3.52-.96,4.5-.28c.98.68.49,3.42,1.44,4.13.95.71,3.17-.18,4.09.56s2.17,1.2,3.07,1.98.96,2.55,1.83,3.36c.87.81,1,2.39,1.84,3.23s2.96.46,3.77,1.33,1.52,1.88,2.3,2.78.46,2.73,1.21,3.66c.75.93,2.34,1.2,3.05,2.16s.92,2.29,1.6,3.26c.68.98,2.84,1.01,3.48,2.01s.77,2.38,1.38,3.41c.61,1.02-.23,2.89.34,3.93s3.2,1.04,3.74,2.1c.53,1.06-1.75,3.49-1.25,4.57.49,1.08,2.81,1.36,3.27,2.46s1.46,2.02,1.88,3.14,1.12,2.19,1.49,3.32.96,2.26,1.3,3.4c.33,1.14-1.29,2.85-1,4.01s.12,2.4.37,3.57,2.91,1.87,3.12,3.05c.21,1.17-3.12,2.91-2.95,4.1s3.86,1.92,3.98,3.11-.02,2.45.07,3.64-1.96,2.5-1.92,3.7c.04,1.19.76,2.36.76,3.55Z"/>
    </g>
  </g>
</svg>